<?xml version="1.0" standalone="no"?><!DOCTYPE svg PUBLIC "-//W3C//DTD SVG 1.1//EN" "http://www.w3.org/Graphics/SVG/1.1/DTD/svg11.dtd"><svg t="1603795627565" class="icon" viewBox="0 0 1024 1024" version="1.1" xmlns="http://www.w3.org/2000/svg" p-id="22775" xmlns:xlink="http://www.w3.org/1999/xlink" width="300" height="300"><defs><style type="text/css"></style></defs><path d="M246.45632 168.98048c-1.5872-12.17024-1.98656-24.64256-4.992-36.4544-7.26016-28.53888 3.67104-50.1504 24.92416-67.27168 32.53248-26.2144 71.41888-37.1712 111.97952-41.91232 28.42112-3.32288 48.90624 9.51296 61.4144 35.80416 6.71232 14.1056 14.23872 27.32032 25.74848 38.32832 36.11648 34.54464 96.6144 18.15552 117.37088-24.32 4.97152-10.14272 11.27936-19.82976 18.20672-28.75904 13.54752-17.46432 32.27648-24.09472 53.76-20.9408 34.79552 5.09952 68.31616 14.336 96.2304 37.23776 16.37888 13.44 31.57504 27.904 36.1216 50.176 2.80576 13.73184-1.62304 26.1888-5.98528 38.48704-4.89472 13.7728-7.14752 27.48928-5.8368 42.12224 2.93888 32.60928 31.98464 60.31872 64.83968 61.52704 17.57184 0.65024 34.16064-2.51904 50.45248-9.2416 32.44032-13.37344 60.26752-4.59776 80.88576 23.81824 23.78752 32.77824 34.83136 70.36928 38.81984 109.6192 2.75968 27.15136-10.42944 48.90624-40.71424 62.32064-13.65504 6.05184-25.49248 13.96736-35.712 24.82688-33.7152 35.79904-22.78912 93.5168 21.87264 114.42176 15.22176 7.12704 29.53728 15.33952 39.86432 29.27616 13.11232 17.69984 15.73888 37.49888 12.05248 58.42432-5.888 33.56672-16.26112 65.40288-39.38304 91.53536-20.77184 23.46496-46.2592 34.39616-77.65504 26.40896-22.02112-5.6064-43.91424-9.71264-66.77504-5.61664-24.21248 4.34176-46.46912 28.71808-48.16384 53.50912-1.08032 15.9744 0.04608 31.42144 6.75328 46.37696 15.2576 33.9968 0.29696 68.5312-26.60864 86.81472-30.80192 20.93568-64.33792 33.32608-100.77184 38.144-30.08512 3.97824-54.54336-11.93984-68.75648-43.5456-9.3184-20.75648-22.78912-37.68832-43.81184-47.08864-24.63744-11.01824-48.08704-7.15776-69.41696 8.84736-13.54752 10.1632-24.25856 22.91712-30.52032 38.89152-14.62784 37.31456-50.25792 47.70816-81.6384 41.86112-39.00928-7.28064-75.74016-20.16256-106.97216-45.75232-14.17728-11.6224-24.78592-25.13408-27.89888-44.14976-2.10944-12.92288 1.05472-24.53504 5.4272-35.9168 5.60128-14.57664 10.58304-28.83584 9.8048-44.97408-1.28512-26.68544-21.49376-49.5104-48.0256-53.0176-20.76672-2.74432-40.72448 1.21344-60.8 5.76-29.02528 6.5792-53.33504-1.88416-71.3728-25.6256-23.61344-31.0784-37.2736-66.70336-40.0128-105.28768-2.20672-31.03232 7.93088-56.2432 39.46496-69.46816 22.76864-9.53856 41.18016-24.73984 52.24448-47.26784 10.61888-21.60128 9.1136-43.48928-6.25152-61.68576-10.34752-12.25216-23.12192-25.60512-37.54496-30.63808C27.56608 430.08 14.44352 385.88416 22.93248 349.82912c7.54176-32.04608 17.85856-62.60224 39.84896-87.7312 16.35328-18.688 35.91168-29.10208 62.19776-21.75488 17.34144 4.84864 34.56 10.77248 53.28384 9.5744 32.98304-2.11456 63.39072-20.30592 66.31424-61.54752 0.45568-6.43072 0.80384-12.86656 1.19808-19.3024l0.68096-0.08704z m28.07296-2.23744c-1.29024 12.08832-1.7408 23.28064-3.82976 34.16064-3.44064 17.96608-8.80128 35.33312-22.91712 48.35328-21.22752 19.57888-46.42304 30.07488-75.16672 28.29824-16.71168-1.02912-33.52576-4.91008-49.65376-9.68704-17.408-5.15072-29.78304 0.66048-40.01792 13.66016-20.87936 26.51648-32.256 56.96-34.57024 90.45504-1.03936 15.01696 4.82304 35.33824 25.28768 43.01824 18.95424 7.10656 34.432 19.7888 48.34816 34.28864 30.6176 31.8976 33.54112 79.50336 7.22432 114.94912-15.17568 20.43904-34.22208 36.08064-57.68192 45.96224-12.4416 5.23776-20.1984 13.824-21.90336 27.21792-0.768 6.05184-1.03936 12.31872-0.39936 18.37568 3.2256 30.34624 14.77632 57.71264 31.55968 82.85696 12.03712 18.02752 28.20096 22.85056 49.7152 18.66752 18.26304-3.54816 36.99712-7.4496 55.40352-6.9376 50.7136 1.38752 82.94912 36.30592 83.53792 87.09632 0.20992 18.1248-5.54496 34.5344-12.544 50.70848-6.57408 15.2064-4.44416 28.8 7.64928 40.11008 30.9248 28.94336 68.56704 43.16672 109.96224 47.49312 21.13536 2.2016 33.58208-6.272 42.08128-25.91232 7.97184-18.432 19.53792-34.01216 34.9696-46.60736 31.93856-26.08128 67.26656-32.08192 104.96512-14.65344 26.01472 12.01664 43.45856 33.11104 55.10656 59.0848 10.17856 22.70208 22.36416 30.78144 43.93472 27.84256 32.50688-4.4544 62.16704-16.32768 88.25344-36.38784 4.5312-3.48672 8.4992-8.09984 11.61728-12.91264 8.56064-13.20448 5.89824-26.6496 0.14848-40.22272-9.7024-22.89664-11.8016-46.78656-4.46976-70.44096 9.8048-31.59552 28.14464-55.28064 62.86336-63.15008 27.55072-6.2464 54.08256-2.90816 80.55296 4.736 19.93728 5.75488 36.70528-0.18944 50.09408-14.82752 23.01952-25.17504 33.44384-55.97696 36.49024-89.39008 1.50016-16.49152-5.28384-29.7728-19.32288-38.8096-5.86752-3.77856-12.14464-6.99392-18.42688-10.08128-21.8368-10.74176-38.54848-26.69056-48.14848-49.09568-18.64704-43.53024-7.78752-89.68704 28.8-119.76192 10.68544-8.77568 23.40864-15.32416 35.80928-21.69344 18.4576-9.48224 25.35936-21.47328 22.06208-41.99936-1.20832-7.50592-2.36032-15.07328-4.3776-22.38464-7.20384-26.07104-15.68256-51.64032-34.70848-72.00256-11.25888-12.03712-23.36256-13.89568-39.10656-8.75008-15.20128 4.96128-30.70976 10.27584-46.45888 11.97056-39.9104 4.29568-72.65792-9.53856-94.7456-44.12416-18.6112-29.15328-20.36224-60.3392-8.59136-92.50816 10.15808-27.78112 8.71936-34.67776-13.02528-54.84544-24.85248-23.04512-55.4496-32.68096-88.15616-37.6832-16.26112-2.48832-26.97728 4.97664-35.54304 17.30048-2.6624 3.81952-5.01248 7.94624-6.87616 12.2112-7.57248 17.33632-19.24096 31.26784-34.17088 42.73152-34.12992 26.20416-83.97312 27.68896-119.1168 3.0208-18.944-13.29152-31.91808-31.42656-41.38496-52.43392-9.23136-20.48512-19.90144-25.984-42.0608-22.25664-10.0864 1.69472-20.20864 3.62496-30.00832 6.48192-23.75168 6.92736-46.5664 16.07168-64.80384 33.58208-10.21952 9.80992-13.84448 21.34016-10.04032 35.93216 3.3792 12.92288 4.04992 26.5472 5.79072 38.99392z" fill="" p-id="22776"></path><path d="M732.928 511.66208c0.98304 118.77888-96.38912 215.72608-217.8816 216.9344-119.43936 1.1776-217.73824-96.31744-218.10688-216.32-0.36864-118.8352 95.46752-214.33856 216.62208-215.86944 119.87456-1.51552 218.368 95.13472 219.3664 215.25504z m-218.96192-187.11552c-105.07776-1.23392-189.76768 88.28416-189.34272 188.17536 0.42496 100.03456 86.02112 188.5696 190.02368 188.16512 105.3184-0.39936 190.52544-87.3728 190.21312-188.83584-0.31744-103.96672-85.6064-188.0576-190.89408-187.50464z" fill="" p-id="22777"></path></svg>