<?xml version="1.0" standalone="no"?><!DOCTYPE svg PUBLIC "-//W3C//DTD SVG 1.1//EN" "http://www.w3.org/Graphics/SVG/1.1/DTD/svg11.dtd"><svg t="1604743568090" class="icon" viewBox="0 0 1024 1024" version="1.1" xmlns="http://www.w3.org/2000/svg" p-id="4885" xmlns:xlink="http://www.w3.org/1999/xlink" width="9" height="9"><defs><style type="text/css"></style></defs><path d="M992 512c0 264-216 480-480 480s-480-216-480-480 216-480 480-480 480 216 480 480zM524 362c42 0 72-36 72-72s-36-72-72-72S452 254 452 290s36 72 72 72z m0 90C482 452 452 488 452 524v240c0 42 36 72 72 72s72-36 72-72v-240C602 488 566 452 524 452z" fill="#dc0003" p-id="4886"></path></svg>