<?xml version="1.0" standalone="no"?><!DOCTYPE svg PUBLIC "-//W3C//DTD SVG 1.1//EN" "http://www.w3.org/Graphics/SVG/1.1/DTD/svg11.dtd"><svg t="1603769187165" class="icon" viewBox="0 0 1024 1024" version="1.1" xmlns="http://www.w3.org/2000/svg" p-id="70603" xmlns:xlink="http://www.w3.org/1999/xlink" width="200" height="200"><defs><style type="text/css"></style></defs><path d="M580.34176 1021.502464c-58.528768 4.818944-127.265792 0-127.265792 0s-350.40768-8.02816-350.40768-287.214592 337.506304-459.13088 337.506304-459.13088l154.349568 0c0 0 320.625664 215.497728 320.625664 464.290816C915.150848 988.281856 580.34176 1023.910912 580.34176 1021.502464L580.34176 1021.502464zM440.174592 256.959488l0-54.629376 154.693632 0 0 54.629376L440.174592 256.959488 440.174592 256.959488zM592.459776 184.132608 442.58304 184.132608 362.816512 4.340736c0 0 47.156224 36.395008 76.172288 36.395008 28.997632 0 78.541824-37.579776 78.541824-37.579776s45.914112 37.579776 74.929152 37.579776c28.977152 0 78.56128-38.687744 78.56128-38.687744L592.459776 184.132608 592.459776 184.132608zM470.910976 862.855168l69.863424 0 0-67.818496 93.39392 0 0-54.89664-93.39392 0 0-29.858816 93.39392 0 0-54.89664-65.830912 0 78.294016-156.813312-76.573696 0-50.653184 105.892864c-5.810176 12.388352-10.284032 24.046592-13.418496 35.018752-2.675712-10.129408-7.14752-21.751808-13.456384-35.018752l-49.678336-105.892864-76.516352 0 77.280256 156.813312-64.874496 0 0 54.89664 92.17024 0 0 29.858816-92.17024 0 0 54.89664 92.17024 0L470.910976 862.855168 470.910976 862.855168z" p-id="70604"></path></svg>