<?xml version="1.0" standalone="no"?><!DOCTYPE svg PUBLIC "-//W3C//DTD SVG 1.1//EN" "http://www.w3.org/Graphics/SVG/1.1/DTD/svg11.dtd"><svg t="1603873039237" class="icon" viewBox="0 0 1024 1024" version="1.1" xmlns="http://www.w3.org/2000/svg" p-id="19360" xmlns:xlink="http://www.w3.org/1999/xlink" width="9" height="9"><defs><style type="text/css"></style></defs><path d="M914.037563 467.328591H109.961414c-24.669866 0-44.671409 20.001543-44.671409 44.671409s20.001543 44.671409 44.671409 44.671409h804.076149c24.669866 0 44.671409-20.001543 44.671408-44.671409s-20.001543-44.671409-44.671408-44.671409zM109.961414 243.970524h804.076149c24.669866 0 44.671409-20.001543 44.671408-44.671409s-20.001543-44.671409-44.671408-44.671409H109.961414c-24.669866 0-44.671409 20.001543-44.671409 44.671409s20.002566 44.671409 44.671409 44.671409zM914.037563 780.028453H109.961414c-24.669866 0-44.671409 20.001543-44.671409 44.671408s20.001543 44.671409 44.671409 44.671409h804.076149c24.669866 0 44.671409-20.001543 44.671408-44.671409s-20.001543-44.671409-44.671408-44.671408z" p-id="19361"></path></svg>