<?xml version="1.0" standalone="no"?><!DOCTYPE svg PUBLIC "-//W3C//DTD SVG 1.1//EN" "http://www.w3.org/Graphics/SVG/1.1/DTD/svg11.dtd"><svg t="1603867111498" class="icon" viewBox="0 0 1024 1024" version="1.1" xmlns="http://www.w3.org/2000/svg" p-id="7571" xmlns:xlink="http://www.w3.org/1999/xlink" width="300" height="300"><defs><style type="text/css"></style></defs><path d="M300.808533 602.513067L451.669333 451.6608c33.322667-33.322667 87.355733-33.322667 120.6784 0 33.322667 33.322667 33.322667 87.355733 0 120.6784L421.495467 723.182933c-33.3312 33.3312-87.355733 33.3312-120.6784 0-33.3312-33.322667-33.3312-87.3472 0-120.669866z" fill="#65C6BB" p-id="7572"></path><path d="M602.504533 723.182933L451.6608 572.3392c-33.322667-33.322667-33.322667-87.355733 0-120.6784 33.322667-33.322667 87.355733-33.322667 120.6784 0l150.843733 150.843733c33.3312 33.3312 33.3312 87.355733 0 120.6784-33.322667 33.3312-87.3472 33.3312-120.6784 0z" fill="#65C6BB" p-id="7573"></path><path d="M723.182933 421.495467L572.3392 572.3392c-33.322667 33.322667-87.355733 33.322667-120.6784 0-33.322667-33.322667-33.322667-87.355733 0-120.6784L602.513067 300.8c33.322667-33.322667 87.3472-33.322667 120.6784 0 33.322667 33.3312 33.322667 87.355733-0.008534 120.686933z" fill="#65C6BB" p-id="7574"></path><path d="M421.486933 300.808533L572.3392 451.669333c33.322667 33.322667 33.322667 87.355733 0 120.6784-33.322667 33.322667-87.355733 33.322667-120.6784 0L300.8 421.486933c-33.322667-33.322667-33.322667-87.3472 0-120.6784 33.3312-33.322667 87.355733-33.322667 120.6784 0z" fill="#65C6BB" p-id="7575"></path></svg>