<?xml version="1.0" standalone="no"?><!DOCTYPE svg PUBLIC "-//W3C//DTD SVG 1.1//EN" "http://www.w3.org/Graphics/SVG/1.1/DTD/svg11.dtd"><svg t="1603769096525" class="icon" viewBox="0 0 1024 1024" version="1.1" xmlns="http://www.w3.org/2000/svg" p-id="66544" xmlns:xlink="http://www.w3.org/1999/xlink" width="200" height="200"><defs><style type="text/css"></style></defs><path d="M561.216 455.5s3.132-389.524 0-389.524c224.092 0 389.527 165.431 389.527 389.523-0.001 1.249-389.527 0-389.527 0z m357.08 79.937c0 233.058-188.93 421.985-421.984 421.985-233.058 0-421.988-188.927-421.988-421.985 0-233.055 188.93-421.982 421.988-421.982 10.955 0 21.714 0.786 32.458 1.615v372.892h387.007c1.613 14.935 2.52 32.113 2.52 47.475z m-34.489-12.983H496.312v-376.54c-215.13 0-389.527 174.396-389.527 389.523 0 215.13 174.397 389.526 389.527 389.526 215.126 0 389.52-174.397 389.52-389.526 0-41.89-2.025-12.983-2.025-12.983z" p-id="66545"></path></svg>