<?xml version="1.0" standalone="no"?><!DOCTYPE svg PUBLIC "-//W3C//DTD SVG 1.1//EN" "http://www.w3.org/Graphics/SVG/1.1/DTD/svg11.dtd"><svg t="1603852450981" class="icon" viewBox="0 0 1024 1024" version="1.1" xmlns="http://www.w3.org/2000/svg" p-id="2396" xmlns:xlink="http://www.w3.org/1999/xlink" width="300" height="300"><defs><style type="text/css"></style></defs><path d="M994.816 517.632c0-271.872-216.576-487.936-488.448-487.936-260.608 0-476.672 216.064-476.672 487.936 0 260.608 216.064 476.672 476.672 476.672 271.872 0.512 488.448-216.064 488.448-476.672zM289.28 553.984c-4.096-4.096-4.608-11.776-1.024-17.408l14.336-19.456c4.096-5.12 10.752-6.144 15.872-2.56l119.296 91.648c4.608 4.096 12.8 4.096 17.92-0.512l305.152-253.952c4.608-4.096 12.288-4.096 16.896 0.512l11.776 11.776c4.096 4.096 4.096 11.776 0 15.872L455.168 708.608c-4.096 4.096-11.776 4.096-15.872 0L289.28 553.984z" fill="#09BB07" p-id="2397"></path></svg>