<?xml version="1.0" standalone="no"?><!DOCTYPE svg PUBLIC "-//W3C//DTD SVG 1.1//EN" "http://www.w3.org/Graphics/SVG/1.1/DTD/svg11.dtd"><svg t="1603303449277" class="icon" viewBox="0 0 1024 1024" version="1.1" xmlns="http://www.w3.org/2000/svg" p-id="5792" xmlns:xlink="http://www.w3.org/1999/xlink" width="200" height="200"><defs><style type="text/css"></style></defs><path d="M269.936 873.023l-85.994-273.29 280.664-486.048 365.685 211.229-280.804 485.91-279.55 62.199z m-48.285-269.115l71.801 228.205 233.493-51.903 255.756-442.634L477.27 161.274 221.65 603.908z" p-id="5793"></path><path d="M211.59 586.922l335.24 193.556-17.394 30.126-335.24-193.557 17.393-30.125zM813.593 353.718l-365.685-211.09 68.044-117.86 1.67 0.975C532.511 9.6 553.94 0 576.482 0c13.915 0 27.69 3.618 39.658 10.575l227.509 131.357c32.7 18.925 47.032 57.608 36.318 92.395l1.809 0.975-8.906 15.306-59.277 103.11zM495.358 129.826l305.433 176.442 42.023-72.915c12.245-21.429 4.87-48.841-16.559-61.225L598.746 40.77c-6.818-3.896-14.471-5.984-22.264-5.984-16.002 0-31.03 8.488-38.962 22.264l-1.53 2.644-40.632 70.131zM140.527 978.498h441.66V1024h-441.66v-45.502z" p-id="5794"></path></svg>