<?xml version="1.0" standalone="no"?><!DOCTYPE svg PUBLIC "-//W3C//DTD SVG 1.1//EN" "http://www.w3.org/Graphics/SVG/1.1/DTD/svg11.dtd"><svg t="1603815611271" class="icon" viewBox="0 0 1024 1024" version="1.1" xmlns="http://www.w3.org/2000/svg" p-id="37081" xmlns:xlink="http://www.w3.org/1999/xlink" width="300" height="300"><defs><style type="text/css"></style></defs><path d="M511.998465 954.360874c-47.339215 0-93.968255-7.4507-138.534308-22.152555-10.995436-3.590785-21.808723-7.664571-32.432699-12.106748l20.988031-49.906693c9.250697 3.912104 18.740848 7.457863 28.3364 10.628069 39.145594 12.849669 80.066627 19.402928 121.642576 19.402928 214.058474 0 388.225363-174.144376 388.225363-388.198757s-174.166889-388.250946-388.225363-388.250946c-214.054381 0-388.222294 174.196565-388.222294 388.250946 0 70.316556 18.978256 139.148293 54.927038 199.145818l-46.467358 27.81042c-40.947638-68.412181-62.593656-146.864029-62.593656-226.956239 0-243.924719 198.43155-442.385945 442.356269-442.385945 243.927789 0 442.360362 198.460202 442.360362 442.385945S755.926254 954.360874 511.998465 954.360874z" fill="#FFCC22" p-id="37082"></path><path d="M538.009911 633.962359c0.422626-22.837147 2.007729-39.334906 4.758379-49.485091 2.74758-10.150184 6.975885-19.137892 12.686963-26.959029 5.708008-7.824207 17.870014-19.983143 36.477833-36.533091 27.700926-24.477509 46.309768-45.359116 55.827549-62.489279 9.514711-17.072858 14.273089-35.785054 14.273089-56.086445 0-35.106601-13.534261-65.080293-40.601761-89.771673-27.067499-24.742545-63.333507-37.10819-108.799047-37.10819-42.928761 0-77.449007 11.519369-103.566877 34.518199-26.115824 23.103207-41.815403 56.30441-47.102831 99.65068l58.680529 6.979979c5.075604-32.40814 15.754838-56.143751 32.039749-71.420704 16.281841-15.173599 36.58221-22.787005 60.903153-22.787005 25.163125 0 46.415169 8.355303 63.756133 25.215313 17.339941 16.761772 26.008376 36.320243 26.008376 58.473821 0 12.314479-2.957358 23.63328-8.878213 33.990173-5.920856 10.364056-18.770524 24.213495-38.541843 41.712049-19.770296 17.447388-33.463169 30.716613-41.076575 39.756509-10.363032 12.532444-17.868991 24.904228-22.521969 37.165495-6.343481 16.284911-9.514711 35.629511-9.514711 58.049149 0 3.808749 0.104377 9.465592 0.317225 17.12914L538.009911 633.962359zM544.670618 748.471461l0-65.080293-65.025034 0 0 65.080293L544.670618 748.471461z" fill="#FFCC22" p-id="37083"></path></svg>