<?xml version="1.0" standalone="no"?><!DOCTYPE svg PUBLIC "-//W3C//DTD SVG 1.1//EN" "http://www.w3.org/Graphics/SVG/1.1/DTD/svg11.dtd"><svg t="1600964067471" class="icon" viewBox="0 0 1024 1024" version="1.1" xmlns="http://www.w3.org/2000/svg" p-id="3436" xmlns:xlink="http://www.w3.org/1999/xlink" width="200" height="200"><defs><style type="text/css"></style></defs><path d="M541.696 761.728l3.584-3.114667 213.333333-213.333333a32 32 0 0 0 3.114667-41.642667l-3.114667-3.584-213.333333-213.333333a32 32 0 0 0-48.341333 41.642667l3.114666 3.584 190.677334 190.72-190.72 190.72a32 32 0 0 0-3.072 41.642666l3.114666 3.584a32 32 0 0 0 41.642667 3.114667z m-245.333333 0l3.584-3.114667 213.333333-213.333333a32 32 0 0 0 3.114667-41.642667l-3.114667-3.584-213.333333-213.333333a32 32 0 0 0-48.341334 41.642667l3.11466701 3.584 190.67733299 190.72-190.71999999 190.72a32 32 0 0 0-3.07200001 41.642666l3.114667 3.584a32 32 0 0 0 41.642667 3.114667z" p-id="3437"></path></svg>