<?xml version="1.0" standalone="no"?><!DOCTYPE svg PUBLIC "-//W3C//DTD SVG 1.1//EN" "http://www.w3.org/Graphics/SVG/1.1/DTD/svg11.dtd"><svg t="1600964224874" class="icon" viewBox="0 0 1024 1024" version="1.1" xmlns="http://www.w3.org/2000/svg" p-id="3262" xmlns:xlink="http://www.w3.org/1999/xlink" width="200" height="200"><defs><style type="text/css"></style></defs><path d="M482.304 262.272l-3.584 3.114667-213.333333 213.333333a32 32 0 0 0-3.114667 41.642667l3.114667 3.584 213.333333 213.333333a32 32 0 0 0 48.341333-41.642667l-3.114666-3.584-190.677334-190.72 190.72-190.72a32 32 0 0 0 3.072-41.642666l-3.114666-3.584a32 32 0 0 0-41.642667-3.114667z m245.333333 0l-3.584 3.114667-213.333333 213.333333a32 32 0 0 0-3.114667 41.642667l3.114667 3.584 213.333333 213.333333a32 32 0 0 0 48.341334-41.642667l-3.114667-3.584-190.677333-190.72 190.72-190.72a32 32 0 0 0 3.072-41.642666l-3.114667-3.584a32 32 0 0 0-41.642667-3.114667z" p-id="3263"></path></svg>