<?xml version="1.0" standalone="no"?><!DOCTYPE svg PUBLIC "-//W3C//DTD SVG 1.1//EN" "http://www.w3.org/Graphics/SVG/1.1/DTD/svg11.dtd"><svg t="1603769570117" class="icon" viewBox="0 0 1024 1024" version="1.1" xmlns="http://www.w3.org/2000/svg" p-id="1709" xmlns:xlink="http://www.w3.org/1999/xlink" width="200" height="200"><defs><style type="text/css"></style></defs><path d="M509.187 90.125l-447.188 461.25h146.25l300.938-309.375 303.75 309.375h146.25z" fill="#ee384a" p-id="1710"></path><path d="M531.688 641.375c-33.75-11.25-47.813-19.688-47.813-33.75 0-11.25 8.438-22.5 33.75-22.5 28.125 0 47.813 8.438 56.25 14.063l11.25-45c-14.063-5.625-30.938-11.25-56.25-14.063v-33.75h-39.375v36.563c-42.188 8.438-67.5 33.75-67.5 70.313 0 39.375 28.125 59.063 70.313 73.125 28.125 8.438 42.188 19.688 42.188 33.75s-14.063 25.313-39.375 25.313c-25.313 0-47.813-8.438-64.688-16.875l-11.25 45c14.063 8.438 39.375 16.875 67.5 16.875v36.563h39.375v-39.375c45-8.438 70.313-36.563 70.313-73.125 2.813-33.75-16.875-56.25-64.688-73.125z" fill="#ee384a" p-id="1711"></path><path d="M807.313 880.438h-5.625v-309.375l-292.5-300.938-289.688 298.125v312.188h-5.625c-28.125 0-47.813 22.5-47.813 47.813v5.625h691.875v-2.813c-2.813-28.125-22.5-50.625-50.625-50.625M509.187 849.5c-101.25 0-182.813-81.563-182.813-182.813s81.563-182.813 182.813-182.813 182.813 81.563 182.813 182.813c2.813 101.25-78.75 182.813-182.813 182.813z" fill="#ee384a" p-id="1712"></path></svg>