<?xml version="1.0" standalone="no"?><!DOCTYPE svg PUBLIC "-//W3C//DTD SVG 1.1//EN" "http://www.w3.org/Graphics/SVG/1.1/DTD/svg11.dtd"><svg t="1603792130842" class="icon" viewBox="0 0 1080 1024" version="1.1" xmlns="http://www.w3.org/2000/svg" p-id="5182" xmlns:xlink="http://www.w3.org/1999/xlink" width="210.9375" height="200"><defs><style type="text/css"></style></defs><path d="M1020.472889 435.427556c-4.266667-27.761778-21.333333-46.933333-42.666667-46.933334h-4.266666c-70.428444 0-128-57.628444-128-130.161778 0-23.438222 10.638222-49.038222 10.638222-49.038222 12.8-23.495111 4.266667-55.466667-17.066667-70.428444h-2.104889l-123.733333-68.266667H711.111111a76.686222 76.686222 0 0 0-23.438222-4.266667c-17.066667 0-34.133333 6.428444-44.828445 19.228445-14.904889 14.904889-61.838222 55.466667-100.238222 55.466667s-85.333333-40.561778-100.295111-57.628445c-10.638222-14.904889-29.866667-21.333333-46.933333-21.333333-8.533333 0-17.066667 2.161778-23.438222 4.266666H369.777778L241.777778 136.760889h-2.104889c-19.228444 17.066667-27.761778 49.038222-17.066667 72.533333 0 0 10.638222 25.6 10.638222 49.038222C233.244444 328.817778 175.672889 388.551111 105.244444 388.551111h-2.104888c-19.228444 0-36.295111 19.171556-42.666667 46.933333 0 2.104889-10.695111 55.466667-10.695111 95.971556 0 42.666667 10.695111 96.028444 10.695111 98.133333 4.266667 27.761778 21.276444 46.933333 42.666667 46.933334h4.209777c70.428444 0 128 57.628444 128 130.161777 0 23.438222-10.638222 49.038222-10.638222 49.038223-12.8 23.495111-4.266667 53.361778 17.066667 68.266666h2.161778l119.466666 68.266667h2.104889c6.428444 4.266667 14.961778 4.266667 23.495111 4.266667 17.066667 0 34.133333-6.371556 46.933334-19.171556 14.904889-14.961778 64-59.733333 102.4-59.733333 40.504889 0 87.438222 44.771556 102.4 61.838222 10.638222 12.8 27.704889 19.228444 46.933333 19.228444 8.533333 0 17.066667-2.161778 23.438222-4.266666h2.161778l123.733333-70.428445h2.104889c21.333333-14.904889 29.866667-46.933333 19.228445-70.371555 0 0-10.695111-25.6-10.695112-49.095111 0-70.371556 57.628444-130.104889 128-130.104889h4.266667c19.228444 0 36.295111-17.066667 42.666667-46.933334 0-2.161778 10.695111-55.466667 10.695111-98.133333-2.161778-38.4-12.8-91.761778-12.8-93.866667zM540.444444 702.008889c-93.866667 0-170.666667-76.8-170.666666-170.666667s76.8-170.666667 170.666666-170.666666 170.666667 76.8 170.666667 170.666666-76.8 170.666667-170.666667 170.666667z m0-300.771556A130.673778 130.673778 0 0 0 410.339556 531.342222 129.308444 129.308444 0 0 0 540.444444 661.617778a130.673778 130.673778 0 0 0 130.161778-130.161778A130.673778 130.673778 0 0 0 540.444444 401.294222z" fill="#F17D1D" p-id="5183"></path></svg>