<?xml version="1.0" standalone="no"?><!DOCTYPE svg PUBLIC "-//W3C//DTD SVG 1.1//EN" "http://www.w3.org/Graphics/SVG/1.1/DTD/svg11.dtd"><svg t="1604739274667" class="icon" viewBox="0 0 1026 1024" version="1.1" xmlns="http://www.w3.org/2000/svg" p-id="26558" xmlns:xlink="http://www.w3.org/1999/xlink" width="9.017578125" height="9"><defs><style type="text/css"></style></defs><path d="M981.962786 311.464589c-102.161407-241.472416-371.496024-366.852324-622.255841-287.909419-250.759816 78.942905-404.001926 329.702722-348.277523 589.749938 51.080703 255.403517 292.553119 431.864128 552.600337 408.645627 260.047217-27.862202 459.72633-246.116116 459.72633-510.807033 0-69.655505-13.931101-134.667309-41.793303-199.679113z" fill="#FA5665" p-id="26559"></path><path d="M238.970737 334.68309c4.6437-9.287401 13.931101-13.931101 27.862202-13.931101h529.381835c18.574801 0 32.505902 13.931101 32.505902 27.862202v218.253914c0 9.287401-4.6437 18.574801-13.931101 27.862202-9.287401 4.6437-9.287401 13.931101-4.6437 23.218502s13.931101 9.287401 23.218501 9.2874c18.574801-9.287401 32.505902-32.505902 32.505902-55.724403v-218.253915c0-37.149602-32.505902-65.011804-65.011804-65.011804h-529.381835c-23.218502 0-41.793303 9.287401-55.724403 27.862202-4.6437 9.287401-4.6437 18.574801 4.6437 23.218501 4.6437 4.6437 13.931101 0 18.574801-4.6437z" fill="#FFFFFF" p-id="26560"></path><path d="M234.327037 422.913396c-18.574801 0-37.149602 13.931101-37.149602 37.149602v208.966514c0 18.574801 13.931101 37.149602 37.149602 37.149602h487.588532c18.574801 0 37.149602-13.931101 37.149602-37.149602v-208.966514c0-18.574801-13.931101-37.149602-37.149602-37.149602H234.327037z m0-37.149603h487.588532c37.149602 0 69.655505 32.505902 69.655504 69.655505v208.966514c0 37.149602-32.505902 69.655505-69.655504 69.655504H234.327037c-37.149602 0-69.655505-32.505902-69.655505-69.655504v-208.966514c0-37.149602 32.505902-69.655505 69.655505-69.655505z" fill="#FFFFFF" p-id="26561"></path><path d="M508.305355 515.787402h46.437003c4.6437 0 9.287401 4.6437 9.287401 4.6437v13.931101c0 4.6437-4.6437 4.6437-9.287401 4.6437h-60.368104v23.218502h60.368104c4.6437 0 13.931101 4.6437 13.931101 13.931101 0 4.6437-4.6437 13.931101-13.931101 13.931101h-60.368104v51.080703c0 4.6437-4.6437 13.931101-13.931101 13.931101s-13.931101-4.6437-13.931101-13.931101v-51.080703h-60.368104c-4.6437 0-13.931101-4.6437-13.931101-13.931101 0-4.6437 4.6437-13.931101 13.931101-13.931101h60.368104v-23.218502h-60.368104c-4.6437 0-13.931101-4.6437-13.931101-13.9311 0-4.6437 4.6437-13.931101 13.931101-13.931101h41.793303l-23.218502-23.218502c-4.6437-4.6437-4.6437-13.931101 0-18.574801 4.6437-4.6437 13.931101-4.6437 18.574802 0l37.149602 37.149602 37.149603-37.149602c4.6437-4.6437 13.931101-4.6437 18.574801 0s4.6437 13.931101 0 18.574801l-27.862202 27.862202z m-222.897615-46.437003c4.6437 0 9.287401-4.6437 13.931101-9.287401 4.6437-4.6437 4.6437-9.287401 0-13.931101-4.6437-4.6437-9.287401-9.287401-13.931101-9.2874h-37.149602c-9.287401 0-13.931101 4.6437-18.574801 9.2874-4.6437 4.6437-9.287401 13.931101-9.287401 18.574802v46.437003c0 4.6437 4.6437 9.287401 9.287401 13.931101 4.6437 4.6437 9.287401 4.6437 13.931101 0 4.6437-4.6437 9.287401-9.287401 9.2874-13.931101v-37.149603h32.505902z m385.427126 185.748012c-4.6437 0-9.287401 4.6437-13.931101 9.287401-4.6437 4.6437-4.6437 9.287401 0 13.931101 4.6437 4.6437 9.287401 9.287401 13.931101 9.2874h37.149602c13.931101 0 27.862202-13.931101 27.862202-27.862202v-37.149602c0-4.6437-4.6437-9.287401-9.287401-13.931101s-9.287401-4.6437-13.931101 0-9.287401 9.287401-9.2874 13.931101v37.149602h-32.505902z" fill="#FFFFFF" p-id="26562"></path></svg>