<?xml version="1.0" standalone="no"?><!DOCTYPE svg PUBLIC "-//W3C//DTD SVG 1.1//EN" "http://www.w3.org/Graphics/SVG/1.1/DTD/svg11.dtd"><svg t="1604739967011" class="icon" viewBox="0 0 1024 1024" version="1.1" xmlns="http://www.w3.org/2000/svg" p-id="34007" xmlns:xlink="http://www.w3.org/1999/xlink" width="9" height="9"><defs><style type="text/css"></style></defs><path d="M638.24 255.04S844.32 515.36 888 596.64c39.2 69.76-19.84 119.52-51.52 138.72-98.56 59.68-394.24 230.24-398.08 231.84-3.84 1.6-84.48 51.36-138.08-23.04-79.84-130.4 85.12-184.16 85.12-184.16S176.16 493.6 136.32 419.2c-39.84-74.4 22.24-122.72 29.12-126.56 6.88-3.84 379.84-221.76 397.44-233.28 17.6-11.52 99.04-52.96 145.76 30.72 46.88 83.68-26.88 137.28-35.36 141.92-8.48 4.64-405.12 234.08-405.12 234.08" fill="#FFEA33" p-id="34008"></path><path d="M375.52 1008c-36.96 0-69.92-17.12-93.92-50.4l-0.96-1.44c-25.6-41.92-31.84-81.92-18.24-118.72 16.32-44.32 57.92-72.16 86.56-86.72-52.32-67.2-199.2-257.92-232.96-320.96-46.24-86.24 19.52-147.04 38.24-157.44 3.04-1.44 378.08-220.32 396.16-232.16 5.44-3.52 53.76-33.76 105.44-20.96 30.4 7.52 54.88 27.52 72.8 59.68 18.4 32.8 23.04 65.44 13.92 97.12-12.32 42.88-47.04 69.92-58.24 76.16-0.96 0.48-5.6 3.2-13.44 7.68 48.48 61.92 199.52 256 237.12 326.24 40.96 73.12-4 135.36-59.84 169.12-82.72 50.08-393.28 230.24-401.44 233.6-24.32 12.8-48.48 19.2-71.2 19.2z m62.88-40.64z m-119.04-35.84c31.84 43.36 75.52 32.8 106.56 16.32 0.8-0.48 1.6-0.8 2.08-1.12 10.72-5.6 300-172.48 396.64-231.04 28.96-17.6 73.12-54.88 43.36-108-36.8-68.48-194.4-270.72-237.12-325.12-84.96 49.12-251.2 145.12-351.2 203.04-10.88 6.4-24.96 2.56-31.2-8.32-6.4-10.88-2.56-24.96 8.32-31.2 40.64-23.52 397.12-229.76 405.6-234.24 0.48-0.32 65.12-41.28 26.24-110.72-11.68-20.96-26.08-33.28-43.84-37.6-33.44-8.16-68 13.92-69.44 14.88-19.68 12.96-396.16 232.64-398.72 234.24 0 0-52.16 36-20.16 95.84 38.56 71.84 244.8 335.04 246.88 337.6l20.16 25.76-31.2 10.08c-0.64 0.16-69.44 23.36-87.04 71.68-8.32 23.04-3.84 48.48 14.08 77.92z" p-id="34009"></path><path d="M267.04 486.88a22.912 22.912 0 0 1-11.04-43.04c31.68-17.12 40.96-61.44 20.64-98.56-10.08-18.4-25.6-32.32-44-39.04-17.44-6.4-35.04-5.44-49.92 2.72-11.04 6.08-24.96 1.92-31.04-9.12-6.08-11.04-1.92-24.96 9.12-31.04 26.56-14.4 57.6-16.32 87.36-5.44 28.8 10.56 53.28 31.84 68.64 60.16 32.16 59.36 14.72 131.36-39.04 160.64-3.36 1.92-7.04 2.72-10.72 2.72zM389.6 1006.88c-10.24 0-19.52-6.88-22.24-17.28-3.2-12.16 4.32-24.64 16.48-27.84 36.96-9.44 60.32-23.2 67.36-39.52 4.8-11.04 2.56-25.12-6.72-41.76-26.56-48-80.48-111.2-80.96-111.84-8.16-9.6-7.04-24 2.56-32.32 9.6-8.16 24-7.04 32.32 2.56 2.4 2.72 57.44 67.36 86.24 119.2 16.16 29.28 19.2 57.6 8.64 82.08-13.12 30.4-46.08 52.48-97.92 65.76a14.56 14.56 0 0 1-5.76 0.96z" p-id="34010"></path><path d="M617.76 539.68c16.48-5.28 31.36-5.44 44.64-0.48 13.28 4.96 24.32 14.08 32.8 26.88 8.48 12.96 13.28 26.88 14.4 42.08 1.12 15.2-2.4 29.44-10.24 42.56-7.84 13.12-17.12 23.52-36.48 37.6l-0.96 0.64 13.6 20.64c4.64 6.88 3.04 16.32-3.52 21.12-6.56 4.64-15.52 2.88-20.16-4l-13.6-20.64-54.24 39.04c-4.96 3.52-11.68 2.24-15.2-3.04l-140.16-211.68a11.568 11.568 0 0 1 2.72-15.84l54.24-39.04-5.6-8.96a15.552 15.552 0 0 1 3.52-21.12c6.56-4.64 15.52-2.88 20.16 4l5.92 8.8c25.6-18.4 43.52-22.4 62.4-18.08s33.44 13.76 43.36 28.8c6.72 10.08 10.4 21.12 11.04 33.28 0.64 12.16-2.24 24.64-8.64 37.44z m-68 32.32l-45.76-69.28-34.24 24.64 45.76 69.28 34.24-24.64z m70.56 106.56l-52.48-79.2L533.6 624l52.48 79.2 34.24-24.64z m-47.04-123.52c15.2-11.2 20-18.72 23.04-29.12 3.04-10.4 0.8-21.28-6.72-32.64-7.84-11.84-16.96-18.24-27.52-19.2-10.4-0.96-19.04 0.8-34.72 11.68l45.92 69.28z m70.56 106.56l0.64-0.48c19.36-13.92 26.08-24 28.96-36.32 2.88-12.48 0.16-24.8-8-37.28-8.48-12.96-19.04-19.84-31.68-20.64-12.64-0.96-23.68 2.08-42.24 15.36l52.32 79.36z" p-id="34011"></path></svg>