<?xml version="1.0" standalone="no"?><!DOCTYPE svg PUBLIC "-//W3C//DTD SVG 1.1//EN" "http://www.w3.org/Graphics/SVG/1.1/DTD/svg11.dtd"><svg t="1604740076409" class="icon" viewBox="0 0 1601 1024" version="1.1" xmlns="http://www.w3.org/2000/svg" p-id="39529" xmlns:xlink="http://www.w3.org/1999/xlink" width="14.0712890625" height="9"><defs><style type="text/css"></style></defs><path d="M280.35241065 246.600268s2.892225-0.304445 4.414449 1.522223c1.522224 1.978891 3.501115 28.770031 10.503345 36.076706 7.00223 7.306675 35.467816 3.19667 35.467816 12.786681 0 7.611119-26.334473 8.524454-35.315594 15.831128-8.981121 7.306675-3.80556 38.360042-14.765571 37.142263-8.524454-0.913334-2.587781-25.573361-13.091126-35.467817-10.503345-9.894455-36.076706-7.915564-36.076705-16.896685 0-8.981121 26.182251-3.501115 35.163371-13.700015 8.828898-10.046678 5.023339-37.294485 13.700015-37.294484z" fill="#FFBB5A" p-id="39530"></path><path d="M1239.35345165 30.140033s1.978891-0.152222 3.044447 1.065556c1.065557 1.217779 2.435558 19.332243 7.154453 24.355582 4.718894 5.023339 23.898915 2.131113 23.898914 8.676676 0 5.175561-17.810019 5.784451-23.898914 10.655568-6.088895 5.023339-2.587781 25.877806-10.046678 25.116694-5.784451-0.60889-1.674446-17.20113-8.828898-23.898915-7.154452-6.697785-24.355582-5.327784-24.355582-11.416679s17.657797-2.435558 23.746692-9.285566 3.501115-25.268916 9.285566-25.268916z" fill="#E94151" p-id="39531"></path><path d="M1388.53139065 362.13706s2.892225-0.304445 4.566672 1.674446 3.501115 29.226698 10.655567 36.685595c7.154452 7.458897 35.924483 3.19667 35.924483 12.938903 0 7.763342-26.79114 8.676676-35.924483 16.135573-9.133343 7.458897-3.957782 38.968931-15.070016 37.751152-8.676676-0.913334-2.587781-25.877806-13.243348-35.924483-10.655567-10.046678-36.685595-8.067787-36.685595-17.20113 0-9.133343 26.638918-3.501115 35.620038-14.00446 9.285566-10.503345 5.480006-38.055597 14.156682-38.055596z" fill="#FF0000" p-id="39532"></path><path d="M428.92146065 30.140033z m-30.140033 0c0 16.59224 13.547792 30.140033 30.140033 30.140032s30.140033-13.547792 30.140033-30.140032S445.51370065 0 428.92146065 0c-16.744463 0-30.140033 13.547792-30.140033 30.140033M1239.81011865 298.355879z m-29.683366 0c0 16.440018 13.39557 29.683366 29.683366 29.683366 16.440018 0 29.835588-13.39557 29.835588-29.683366 0-16.440018-13.39557-29.835588-29.835588-29.835588-16.440018 0.152222-29.683366 13.39557-29.683366 29.835588" fill="#FFEB00" p-id="39533"></path><path d="M414.15588965 280.393638c0 114.623458 170.945741 207.479114 381.773747 207.479114s381.773748-92.855656 381.773748-207.479114S1006.90986565 73.066746 796.08185965 73.066746C585.10163065 73.066746 414.15588965 165.922402 414.15588965 280.393638z" fill="#DB1818" p-id="39534"></path><path d="M1004.77875265 316.013676z m-138.522373 0c0 76.567861 62.106734 138.522373 138.522373 138.522373 76.567861 0 138.522373-62.106734 138.522372-138.522373s-62.106734-138.522373-138.522372-138.522372c-76.567861 0-138.522373 61.954512-138.522373 138.522372" fill="#F4AD51" p-id="39535"></path><path d="M1004.77875265 316.013676z m-115.99346 0c0 41.404489 22.072246 79.764531 57.99673 100.466776 35.924483 20.702245 80.068976 20.702245 115.993459 0s57.99673-59.062286 57.99673-100.466776c0-41.404489-22.072246-79.764531-57.99673-100.466775a116.080226 116.080226 0 0 0-115.993459 0c-35.924483 20.702245-57.99673 59.062286-57.99673 100.466775" fill="#F4E476" p-id="39536"></path><path d="M1050.90213565 331.235915h-34.554482v-24.051137h34.554482c6.39334 0 11.416679-5.175561 11.416679-11.416679 0-6.39334-5.175561-11.416679-11.416679-11.416679h-19.78891l12.634458-21.767802c3.044448-5.480006 1.065557-12.330013-4.262227-15.374461s-12.330013-1.370001-15.526684 3.957782L1004.77875265 283.894752l-18.875576-32.880035c-3.19667-5.327784-10.1989-7.154452-15.526684-3.957782-5.327784 3.044448-7.306675 9.894455-4.262227 15.374461l12.482236 21.767801h-19.78891c-6.39334 0-11.416679 5.175561-11.416679 11.416679 0 6.39334 5.175561 11.416679 11.416679 11.416679h34.554482v24.051138h-34.554482c-6.39334 0-11.416679 5.175561-11.416679 11.416679 0 6.39334 5.175561 11.416679 11.416679 11.416679h34.554482v21.006689c0 6.39334 5.175561 11.416679 11.416679 11.416679 6.39334 0 11.416679-5.175561 11.416679-11.416679v-21.006689h34.554482c4.110004 0 7.915564-2.131113 9.894455-5.784451 1.978891-3.501115 1.978891-7.915564 0-11.416679-1.978891-3.19667-5.632228-5.480006-9.742233-5.480006zM587.23274365 316.013676z m-138.522373 0c0 76.567861 62.106734 138.522373 138.522373 138.522373 76.567861 0 138.522373-62.106734 138.522373-138.522373s-62.106734-138.522373-138.522373-138.522372-138.522373 61.954512-138.522373 138.522372" fill="#F4AD51" p-id="39537"></path><path d="M587.23274365 316.013676z m-115.993459 0c0 41.404489 22.072246 79.764531 57.996729 100.466776 35.924483 20.702245 80.068976 20.702245 115.99346 0s57.99673-59.062286 57.996729-100.466776c0-64.085625-51.907834-115.993459-115.993459-115.993459s-115.993459 51.907834-115.993459 115.993459" fill="#F4E476" p-id="39538"></path><path d="M633.35612665 331.235915h-34.554482v-24.051137H633.35612665c6.39334 0 11.416679-5.175561 11.416679-11.416679 0-6.39334-5.175561-11.416679-11.416679-11.416679h-19.78891l12.634458-21.767802c3.044448-5.480006 1.065557-12.330013-4.262227-15.374461s-12.330013-1.370001-15.526683 3.957782l-18.875576 32.880036-18.875576-32.880036c-3.19667-5.327784-10.1989-7.154452-15.526684-3.957782-5.327784 3.044448-7.306675 9.894455-4.262227 15.374461l12.634459 21.767802h-19.788911c-6.39334 0-11.416679 5.175561-11.416679 11.416679 0 6.39334 5.175561 11.416679 11.416679 11.416679h34.554482v24.051137h-34.554482c-6.39334 0-11.416679 5.175561-11.416679 11.416679 0 6.39334 5.175561 11.416679 11.416679 11.416679h34.554482v21.00669c0 6.39334 5.175561 11.416679 11.416679 11.416679 6.39334 0 11.416679-5.175561 11.416679-11.416679v-21.00669H633.35612665c4.110004 0 7.915564-2.131113 9.894456-5.784451 1.978891-3.501115 1.978891-7.915564 0-11.416679-1.978891-3.348893-5.784451-5.632228-9.894456-5.632228z" fill="#F4AD51" p-id="39539"></path><path d="M598.95386765 257.560279c0 108.839007 88.288985 196.975769 197.127992 196.97577s197.127992-88.136762 197.127991-196.97577-88.288985-196.975769-197.127991-196.975769-197.127992 88.136762-197.127992 196.975769z" fill="#FFBB5A" p-id="39540"></path><path d="M796.08185965 257.560279z m-165.009068 0c0 58.910064 31.510034 113.405679 82.504534 142.7846 50.9945 29.531143 113.862346 29.531143 165.009067 0 50.9945-29.531143 82.504534-83.874535 82.504534-142.7846 0-91.028988-73.827858-165.009068-165.009067-165.009067-91.18121 0-165.009068 73.827858-165.009068 165.009067" fill="#FFF48D" p-id="39541"></path><path d="M861.53748565 279.328081h-49.167831V245.078044h49.167831c8.981121 0 16.287795-7.306675 16.287796-16.287796 0-8.981121-7.306675-16.287795-16.287796-16.287795h-28.161142l17.81002-30.901145c4.110004-7.763342 1.370001-17.353352-6.241118-21.767801-7.611119-4.414449-17.353352-1.978891-21.920024 5.480006l-26.943362 46.732273-26.943363-46.732273c-2.892225-5.023339-8.220009-8.220009-14.156682-8.220009-5.784451 0-11.264457 3.044448-14.156682 8.220009-2.892225 5.023339-2.892225 11.264457 0 16.287795l17.810019 30.901145h-28.161141c-8.981121 0-16.287795 7.306675-16.287796 16.287795 0 8.981121 7.306675 16.287795 16.287796 16.287796h49.167831v34.250037h-49.167831c-8.981121 0-16.287795 7.306675-16.287796 16.287795 0 8.981121 7.306675 16.287795 16.287796 16.287796h49.167831v29.835588c0 8.981121 7.306675 16.287795 16.287795 16.287795 8.981121 0 16.287795-7.306675 16.287796-16.287795v-29.835588h49.167831c5.784451 0 11.264457-3.044448 14.156682-8.220009 2.892225-5.023339 2.892225-11.264457 0-16.287796-2.740003-5.023339-8.220009-8.067787-14.00446-8.067786z" fill="#FFBB5A" p-id="39542"></path><path d="M796.99519365 355.287052c-155.419058 0-293.484763-34.554482-381.773748-88.136762v679.368515c0 42.774491 34.706704 77.481195 77.481195 77.481195h608.585105c42.774491 0 77.481195-34.706704 77.481195-77.481195V266.998067c-88.288985 53.734503-226.35469 88.288985-381.773747 88.288985z" fill="#FF4545" p-id="39543"></path><path d="M753.00292365 792.165304h-96.508994v-43.078936h96.508994v-29.98781h-96.508994v-43.078936h78.090085l-115.993459-185.102423h105.033447l38.055597 84.026758c19.027798 41.556712 23.442248 52.516724 35.467816 79.003419h3.044448c12.482236-26.486695 17.962242-39.577821 35.467816-79.003419l36.99004-84.026758h103.054557l-115.99346 185.102423H937.80090165v43.078936h-95.595659v29.98781H937.80090165v43.078936h-95.595659v73.066746h-89.050097v-73.066746z" fill="#FFFFFF" p-id="39544"></path></svg>