<?xml version="1.0" standalone="no"?><!DOCTYPE svg PUBLIC "-//W3C//DTD SVG 1.1//EN" "http://www.w3.org/Graphics/SVG/1.1/DTD/svg11.dtd"><svg t="1604739069433" class="icon" viewBox="0 0 1024 1024" version="1.1" xmlns="http://www.w3.org/2000/svg" p-id="21962" xmlns:xlink="http://www.w3.org/1999/xlink" width="9" height="9"><defs><style type="text/css"></style></defs><path d="M627.5 894.1L295.1 959c-50.1 9.8-98.6-22.9-108.4-73L80.9 343.7c-9.8-50.1 22.9-98.6 73-108.4l332.4-64.9c50.1-9.8 98.6 22.9 108.4 73l105.9 542.3c9.6 50.1-23 98.6-73.1 108.4z" fill="#FF7E71" p-id="21963"></path><path d="M796.8 947.2L289.2 905c-50.8-4.2-88.6-48.9-84.4-99.7l54.5-655.8c4.2-50.8 48.9-88.6 99.7-84.4l507.6 42.2c50.8 4.2 88.6 48.9 84.4 99.7l-54.5 655.8c-4.3 50.8-48.9 88.6-99.7 84.4z" fill="#d81e06" p-id="21964"></path><path d="M838.8 129.8L382.6 91.9c-34.1-2.8-66 9.2-89.4 30.6-3.7 165.8 122.3 307.9 289.8 321.9s315.3-105.5 338.9-269.6c-19.6-25-49-42.2-83.1-45z" fill="#5B79FB" p-id="21965"></path><path d="M840.8 105.1L384.7 67.2c-34.1-2.8-66 9.2-89.4 30.6-3.8 165.8 122.2 307.9 289.7 321.9S900.3 314.2 923.9 150c-19.5-24.9-49-42.1-83.1-44.9z" fill="#d81e06" p-id="21966"></path><path d="M597.4 420.7m-148.7 0a148.7 148.7 0 1 0 297.4 0 148.7 148.7 0 1 0-297.4 0Z" fill="#F7554D" p-id="21967"></path><path d="M586.1 407.3m-148.7 0a148.7 148.7 0 1 0 297.4 0 148.7 148.7 0 1 0-297.4 0Z" fill="#FF7E71" p-id="21968"></path><path d="M560.7 489.2l3.1-37.1-37.1-3.1 1.5-18.5 37.1 3.1 1.5-18.5-37.1-3.1 1.6-18.7 37.1 3.1c-12.2-2.4-21.2-6.9-26.9-13.7-5.7-6.7-8.1-15.5-7.2-26.4l3.1-37.1 37.1 3.1-3.1 37.1c-0.4 5.1 1 9.5 4.4 13.5 3.3 3.9 7.5 6.1 12.6 6.5 5.2 0.4 9.7-1 13.7-4.3 3.9-3.3 6.1-7.5 6.5-12.6l3.1-37.1 36.9 3.1-3.1 37.1c-0.9 10.8-4.7 19.1-11.4 24.8-6.7 5.7-16.2 8.7-28.6 9l36.9 3.1-1.6 18.7-36.9-3.1-1.5 18.5 36.9 3.1-1.5 18.5-36.9-3.1-3.1 37.1-37.1-3z" fill="#FFFFFF" p-id="21969"></path></svg>