<?xml version="1.0" standalone="no"?><!DOCTYPE svg PUBLIC "-//W3C//DTD SVG 1.1//EN" "http://www.w3.org/Graphics/SVG/1.1/DTD/svg11.dtd"><svg t="1604738997456" class="icon" viewBox="0 0 1024 1024" version="1.1" xmlns="http://www.w3.org/2000/svg" p-id="21674" xmlns:xlink="http://www.w3.org/1999/xlink" width="9" height="9"><defs><style type="text/css"></style></defs><path d="M696.32 266.24h143.36c22.528 0 40.96 18.432 40.96 40.96v573.44H655.36V307.2c0-22.528 18.432-40.96 40.96-40.96zM204.8 696.32h143.36c22.528 0 40.96 18.432 40.96 40.96v143.36H163.84v-143.36c0-22.528 18.432-40.96 40.96-40.96z" fill="#EC385A" p-id="21675"></path><path d="M450.56 450.56h143.36c22.528 0 40.96 18.432 40.96 40.96v389.12H409.6V491.52c0-22.528 18.432-40.96 40.96-40.96z" fill="#F9BAC6" p-id="21676"></path><path d="M198.656 522.24c-6.144 10.24-18.432 12.288-28.672 8.192s-12.288-18.432-6.144-28.672L286.72 286.72c4.096-8.192 12.288-12.288 20.48-10.24l174.08 26.624 184.32-178.176c8.192-8.192 20.48-8.192 28.672 0s8.192 20.48 0 28.672l-192.512 186.368c-4.096 4.096-10.24 6.144-16.384 6.144l-169.984-24.576-116.736 200.704z" fill="#FBD7DE" p-id="21677"></path></svg>