<?xml version="1.0" standalone="no"?><!DOCTYPE svg PUBLIC "-//W3C//DTD SVG 1.1//EN" "http://www.w3.org/Graphics/SVG/1.1/DTD/svg11.dtd"><svg t="1604739920242" class="icon" viewBox="0 0 1024 1024" version="1.1" xmlns="http://www.w3.org/2000/svg" p-id="30702" xmlns:xlink="http://www.w3.org/1999/xlink" width="9" height="9"><defs><style type="text/css"></style></defs><path d="M199.1 943.7h504.7l97.7-553.6H101.4l97.7 553.6z" fill="#91DDFF" p-id="30703"></path><path d="M715.3 390.2l-81.2 460.1c-2.1 11.7-12.2 20.2-24 20.2h-424l12.9 73.3h504.7l97.7-553.6h-86.1z" fill="#52C7FC" p-id="30704"></path><path d="M475.8 81.2c0.2-13.5-10.6-24.6-24.1-24.8-13.4-0.2-24.5 10.6-24.7 24.1v81.4c-0.2 13.5 10.6 24.6 24.1 24.8 13.5 0.2 24.6-10.6 24.8-24.1V81.2z m220.5 72.1c6.9-11.6 3.1-26.6-8.5-33.5-11.6-6.9-26.6-3.1-33.5 8.5l-0.3 0.6-40.4 69.9c-6.9 11.6-3.1 26.6 8.5 33.5 11.6 6.9 26.6 3.1 33.5-8.5l0.3-0.6 40.4-69.9z m-447.4-24.4c-6.6-11.8-21.5-16-33.2-9.4-11.8 6.6-16 21.5-9.4 33.2l0.3 0.6 40.4 69.9c6.6 11.8 21.5 16 33.2 9.4 11.8-6.6 16-21.5 9.4-33.2l-0.3-0.6-40.4-69.9z" fill="#444852" p-id="30705"></path><path d="M786.6 390.2C689.3 331.9 574 259.9 451.3 259.9s-238 71.9-335.3 130.2h670.6z" fill="#FFEE91" p-id="30706"></path><path d="M451.3 259.9c-66.9 0-131.5 21.6-192.3 50.6 36.1-11.1 73.1-18 110.9-18 100.4 0 195.7 48.2 280.4 97.7h136.3C689.3 331.9 574 259.9 451.3 259.9z" fill="#F9D151" p-id="30707"></path><path d="M451.3 235.5c-133.6 0-253.9 86-359.7 132.3-10.3 4.5-16.2 15.5-14.2 26.6L175 948c2.1 11.7 12.2 20.2 24 20.2h504.7c11.9 0 22-8.5 24-20.2l48-272.3c2.8-13.2-5.7-26.1-18.9-28.9-13.2-2.8-26.1 5.7-28.9 18.9l-0.3 1.5-44.5 252.1H219.5l-90.9-515.2C236 354.7 345.3 284.4 451.3 284.4c64.5 0 122.6 21.5 179.4 51.5 11.9 6.3 26.7 1.7 33-10.2 6.3-11.9 1.7-26.7-10.2-33-60.4-31.9-126.8-57.2-202.2-57.2z" fill="#444852" p-id="30708"></path><path d="M280.5 365.8c-13.5-0.2-24.6 10.6-24.8 24.1-0.2 13.5 10.6 24.6 24.1 24.8h492.6l-22 124.9c-41.3-23.8-82.5-47.6-123.8-71.5-11.5-7-26.6-3.3-33.5 8.2s-3.3 26.6 8.2 33.5c0.3 0.2 0.6 0.3 0.9 0.5C706 570.2 809.7 630.1 913.5 690c11.7 6.7 26.6 2.7 33.4-9 6.7-11.7 2.7-26.6-9-33.4-47.5-27.4-95-54.9-142.5-82.3l30.2-171c2.3-13.3-6.5-25.9-19.8-28.3-1.4-0.2-2.8-0.4-4.2-0.4H280.5z" fill="#444852" p-id="30709"></path><path d="M451 487.9c-13.5 0.2-24.2 11.3-24 24.8v9.8c-32.4 7.5-57 36.7-57 71.3v24.4c0 40.2 33.1 73.3 73.3 73.3h16.3c14 0 24.4 10.5 24.4 24.4v24.4c0 14-10.5 24.4-24.4 24.4h-16.3c-14 0-24.4-10.5-24.4-24.4 0.2-13.5-10.6-24.6-24.1-24.8-13.5-0.2-24.6 10.6-24.8 24.1v0.7c0 34.6 24.6 63.7 57 71.3v9.8c-0.2 13.5 10.6 24.6 24.1 24.8 13.5 0.2 24.6-10.6 24.8-24.1v-10.5c32.4-7.5 57-36.7 57-71.3v-24.4c0-40.2-33.1-73.3-73.3-73.3h-16.3c-14 0-24.4-10.5-24.4-24.4v-24.4c0-14 10.5-24.4 24.4-24.4h16.3c14 0 24.4 10.5 24.4 24.4-0.2 13.5 10.6 24.6 24.1 24.8 13.5 0.2 24.6-10.6 24.8-24.1v-0.7c0-34.6-24.6-63.7-57-71.3v-9.8c0.2-13.5-10.6-24.6-24.1-24.8h-0.8z" fill="#FFFFFF" p-id="30710"></path></svg>