<?xml version="1.0" standalone="no"?><!DOCTYPE svg PUBLIC "-//W3C//DTD SVG 1.1//EN" "http://www.w3.org/Graphics/SVG/1.1/DTD/svg11.dtd"><svg t="1603769585720" class="icon" viewBox="0 0 1024 1024" version="1.1" xmlns="http://www.w3.org/2000/svg" p-id="1851" xmlns:xlink="http://www.w3.org/1999/xlink" width="200" height="200"><defs><style type="text/css"></style></defs><path d="M228.89 292.04l566.39 0 0 556.76-566.39 0 0-556.76Z" fill="#FF902C" p-id="1852"></path><path d="M735.08 858.6h-446a70.07 70.07 0 0 1-70-70V352.22a70.07 70.07 0 0 1 70-70h446a70.07 70.07 0 0 1 70 70v436.39a70.07 70.07 0 0 1-70 69.99z m-446-556.76a50.45 50.45 0 0 0-50.39 50.39v436.38A50.45 50.45 0 0 0 289.07 839h446a50.44 50.44 0 0 0 50.39-50.39V352.22a50.45 50.45 0 0 0-50.39-50.39z" fill="#333333" p-id="1853"></path><path d="M228.89 783.38l566.39 0 0 66.96-566.39 0 0-66.96Z" fill="#333333" p-id="1854"></path><path d="M310.43 874.01m-32.99 0a32.99 32.99 0 1 0 65.98 0 32.99 32.99 0 1 0-65.98 0Z" fill="#333333" p-id="1855"></path><path d="M711.05 874.01m-32.99 0a32.99 32.99 0 1 0 65.98 0 32.99 32.99 0 1 0-65.98 0Z" fill="#333333" p-id="1856"></path><path d="M654.16 291.77h-32.67v-167c0-9-16.49-19.43-37.75-19.43H440.42c-21.26 0-37.75 10.44-37.75 19.43v167H370v-167c0-29.21 30.93-52.09 70.42-52.09h143.31c39.49 0 70.42 22.88 70.42 52.09z" fill="#333333" p-id="1857"></path><path d="M350.91 347.24l18.18 0 0 414.28-18.18 0 0-414.28Z" fill="#FFFFFF" p-id="1858"></path><path d="M458.36 347.24l18.18 0 0 414.28-18.18 0 0-414.28Z" fill="#FFFFFF" p-id="1859"></path><path d="M565.81 347.24l18.18 0 0 414.28-18.18 0 0-414.28Z" fill="#FFFFFF" p-id="1860"></path><path d="M673.26 347.24l18.18 0 0 414.28-18.18 0 0-414.28Z" fill="#FFFFFF" p-id="1861"></path><path d="M239.76 312.58c-17.46 15-22.09 32.06-10.33 38s35.44-1.38 52.91-16.41 22.09-32.06 10.33-38-35.45 1.38-52.91 16.41zM784.4 312.58c17.46 15 22.09 32.06 10.33 38s-35.44-1.38-52.91-16.41-22.09-32.06-10.33-38 35.44 1.38 52.91 16.41z" fill="#333333" p-id="1862"></path><path d="M341.81 347.24l18.18 0 0 414.28-18.18 0 0-414.28Z" fill="#333333" p-id="1863"></path><path d="M449.26 347.24l18.18 0 0 414.28-18.18 0 0-414.28Z" fill="#333333" p-id="1864"></path><path d="M556.72 347.24l18.18 0 0 414.28-18.18 0 0-414.28Z" fill="#333333" p-id="1865"></path><path d="M664.17 347.24l18.18 0 0 414.28-18.18 0 0-414.28Z" fill="#333333" p-id="1866"></path></svg>