<?xml version="1.0" standalone="no"?><!DOCTYPE svg PUBLIC "-//W3C//DTD SVG 1.1//EN" "http://www.w3.org/Graphics/SVG/1.1/DTD/svg11.dtd"><svg t="1604739203400" class="icon" viewBox="0 0 1024 1024" version="1.1" xmlns="http://www.w3.org/2000/svg" p-id="22686" xmlns:xlink="http://www.w3.org/1999/xlink" width="9" height="9"><defs><style type="text/css"></style></defs><path d="M65.514624 455.3984a8.256 8.256 0 0 1-0.5376-16.4736c27.4176-1.9072 46.784-9.9328 57.536-23.808a34.4064 34.4064 0 0 0 7.0784-15.9232c-1.1392 0.4608-2.2784 0.896-3.456 1.28-34.9056 12.9408-52.3136 0.6528-60.7744-11.9424a35.3664 35.3664 0 0 1 0.896-42.7136 40.5504 40.5504 0 0 1 38.4-10.7264 54.8352 54.8352 0 0 1 38.0672 38.976c1.28-0.8448 2.56-1.728 3.712-2.6368 20.7104-15.6288 32.7296-47.616 17.6128-70.3232a44.5952 44.5952 0 0 0-14.464-13.4784 8.4096 8.4096 0 0 1-2.9696-11.2512 7.7824 7.7824 0 0 1 10.8544-3.0848 60.7104 60.7104 0 0 1 19.6736 18.4576c20.3904 30.6176 5.4144 72.8192-21.3376 93.0048a97.024 97.024 0 0 1-10.048 6.6432 59.456 59.456 0 0 1-0.0896 7.0272 49.7664 49.7664 0 0 1-10.7392 26.9696c-13.6576 17.6128-36.8256 27.6736-68.864 29.9264z m29.3504-104.896a23.232 23.232 0 0 0-17.0112 6.656 18.7264 18.7264 0 0 0 0.5632 22.0032c2.8672 4.2624 11.52 17.2288 42.368 5.8368q3.9936-1.4848 7.552-3.0464a40 40 0 0 0-27.2256-30.72 27.264 27.264 0 0 0-6.2464-0.7296z" fill="#F26D6D" p-id="22687"></path><path d="M838.609024 109.7728a26.752 26.752 0 0 1-7.68-1.1392 42.5344 42.5344 0 0 1-26.7136-30.5024 57.1008 57.1008 0 0 1 16.0768-52.9152 66.5344 66.5344 0 0 0-3.968-2.2016c-22.8864-11.968-55.8208-8.448-68.3904 15.8592a46.9376 46.9376 0 0 0-4.9664 19.4944 7.9488 7.9488 0 0 1-8.2944 7.872 8.1408 8.1408 0 0 1-7.6032-8.6016 63.7824 63.7824 0 0 1 6.848-26.56c16.9728-32.7808 60.0064-38.272 89.6-22.7968a98.3936 98.3936 0 0 1 10.3168 6.2336 55.1808 55.1808 0 0 1 6.0416-3.1104 45.2736 45.2736 0 0 1 28.0576-2.4064c21.3632 4.5568 40.576 21.3248 57.1264 49.8432a8.4224 8.4224 0 0 1-2.7136 11.3152 7.808 7.808 0 0 1-10.9184-2.816c-14.1696-24.4096-29.8752-38.6048-46.6944-42.24a31.3856 31.3856 0 0 0-16.896 0.7296l2.7264 2.56c27.0208 26.2912 24.4224 47.9616 17.4976 61.5168a34.944 34.944 0 0 1-29.4528 19.8656z m-5.056-74.8544a41.3568 41.3568 0 0 0-13.9264 39.1552 25.9968 25.9968 0 0 0 15.6928 18.7136 17.4336 17.4336 0 0 0 18.6368-10.5472c2.3424-4.5952 9.4848-18.5728-14.3488-41.7536a124.2624 124.2624 0 0 0-6.0416-5.568z" fill="#F26D6D" p-id="22688"></path><path d="M727.005824 311.488h-1.6128a65.9712 65.9712 0 0 0-64.7552-67.1232v-1.6768a65.9712 65.9712 0 0 0 64.7552-67.1232h1.6128a65.9712 65.9712 0 0 0 64.7552 67.1232v1.6768a65.9712 65.9712 0 0 0-64.7552 67.1232z" fill="#FDE0C2" p-id="22689"></path><path d="M736.183424 209.8944a41.9328 41.9328 0 0 1-41.152 42.6624h-3.392a67.4816 67.4816 0 0 1 33.7536 58.88h1.6128a65.9712 65.9712 0 0 1 64.7552-67.1232v-1.6768a64.2432 64.2432 0 0 1-55.5776-32.7424z" fill="#FFCCA1" p-id="22690"></path><path d="M507.242624 52.5184l24.6656 17.7664a8.3456 8.3456 0 0 0 7.936 1.024l28.16-11.008a8.7168 8.7168 0 0 1 11.2384 10.8928l-8.6784 29.824a9.1648 9.1648 0 0 0 1.5232 8.128l18.7904 24.32a8.96 8.96 0 0 1-6.528 14.464l-30.0416 0.6656a8.5248 8.5248 0 0 0-6.9888 4.0064l-16.4992 26.0096a8.4608 8.4608 0 0 1-15.2704-1.9584l-9.8816-29.44a8.7168 8.7168 0 0 0-5.8368-5.6576l-28.9792-8.2432a8.96 8.96 0 0 1-2.9312-15.6672l23.9232-18.8416a9.024 9.024 0 0 0 3.3792-7.5008l-1.408-31.104a8.5888 8.5888 0 0 1 13.4272-7.68z" fill="#FDE0C2" p-id="22691"></path><path d="M567.965824 60.288l-28.16 11.008a8.3456 8.3456 0 0 1-7.936-1.024l-24.6656-17.7664a8.4224 8.4224 0 0 0-12.8 4.032l16.4096 17.024a64.768 64.768 0 0 1 0 89.2672l4.6464 13.8112a8.4608 8.4608 0 0 0 15.2704 1.9584l16.4992-26.0096a8.5248 8.5248 0 0 1 6.9888-4.0064l30.0416-0.6656a8.96 8.96 0 0 0 6.528-14.464l-18.7904-24.32a9.152 9.152 0 0 1-1.5232-8.128l8.6784-29.824a8.7296 8.7296 0 0 0-11.1872-10.8928z" fill="#FFCCA1" p-id="22692"></path><path d="M890.218624 230.4512a8.2048 8.2048 0 0 1 11.8912 0l13.3248 13.824a8.96 8.96 0 0 1 0 12.3264 8.2048 8.2048 0 0 1-11.8912 0l-13.2992-13.8624a8.96 8.96 0 0 1-0.0256-12.288z" fill="#99C2BC" p-id="22693"></path><path d="M935.338624 277.2224a8.2048 8.2048 0 0 1 11.8912 0l13.3248 13.824a8.96 8.96 0 0 1 0 12.3264 8.2048 8.2048 0 0 1-11.8912 0l-13.2992-13.8624a8.96 8.96 0 0 1-0.0256-12.288z" fill="#99C2BC" p-id="22694"></path><path d="M960.529024 230.4512a8.96 8.96 0 0 1 0 12.3264l-13.312 13.824a8.192 8.192 0 0 1-11.904 0 8.96 8.96 0 0 1 0-12.3264l13.3376-13.824a8.192 8.192 0 0 1 11.8784 0z" fill="#99C2BC" p-id="22695"></path><path d="M915.409024 277.2224a8.96 8.96 0 0 1 0 12.3264l-13.312 13.824a8.192 8.192 0 0 1-11.904 0 8.96 8.96 0 0 1 0-12.3264l13.3376-13.824a8.192 8.192 0 0 1 11.8784 0z" fill="#99C2BC" p-id="22696"></path><path d="M918.071424 266.9056a7.5776 7.3088 90 1 0 14.6176 0 7.5776 7.3088 90 1 0-14.6176 0Z" fill="#99C2BC" p-id="22697"></path><path d="M273.348224 144.9216a8.192 8.192 0 0 1 11.8912 0l13.3248 13.824a8.96 8.96 0 0 1 0 12.3264 8.192 8.192 0 0 1-11.8912 0l-13.2992-13.8624a8.96 8.96 0 0 1-0.0256-12.288z" fill="#99C2BC" p-id="22698"></path><path d="M318.468224 191.6928a8.2048 8.2048 0 0 1 11.8912 0l13.3248 13.824a8.96 8.96 0 0 1 0 12.3264 8.2048 8.2048 0 0 1-11.8912 0l-13.2992-13.8624a8.96 8.96 0 0 1-0.0256-12.288z" fill="#99C2BC" p-id="22699"></path><path d="M343.671424 144.9216a8.96 8.96 0 0 1 0 12.3264l-13.3376 13.824a8.2048 8.2048 0 0 1-11.904 0 8.96 8.96 0 0 1 0-12.3264l13.3376-13.824a8.2048 8.2048 0 0 1 11.904 0z" fill="#99C2BC" p-id="22700"></path><path d="M298.538624 191.6928a8.96 8.96 0 0 1 0 12.3264l-13.312 13.824a8.192 8.192 0 0 1-11.904 0 8.96 8.96 0 0 1 0-12.3264l13.3376-13.824a8.192 8.192 0 0 1 11.8784 0z" fill="#99C2BC" p-id="22701"></path><path d="M301.201024 181.376a7.5776 7.3088 90 1 0 14.6176 0 7.5776 7.3088 90 1 0-14.6176 0Z" fill="#99C2BC" p-id="22702"></path><path d="M906.129024 478.0672a23.8336 22.9888 90 1 0 45.9776 0 23.8336 22.9888 90 1 0-45.9776 0Z" fill="#FDE0C2" p-id="22703"></path><path d="M935.069824 455.2064v1.8944a27.9936 27.9936 0 0 1-27.4688 28.48 22.6432 22.6432 0 0 0 25.92 15.8976 23.9488 23.9488 0 0 0 1.5488-46.272z" fill="#FFCCA1" p-id="22704"></path><path d="M929.117824 511.3472a33.28 33.28 0 1 1 32.1024-33.28 32.7424 32.7424 0 0 1-32.1024 33.28z m0-51.0848a17.8304 17.8304 0 1 0 17.1904 17.8176 17.5232 17.5232 0 0 0-17.1904-17.8688z" fill="#413F4F" p-id="22705"></path><path d="M56.081024 76.288a23.8336 22.9888 90 1 0 45.9776 0 23.8336 22.9888 90 1 0-45.9776 0Z" fill="#FDE0C2" p-id="22706"></path><path d="M85.034624 53.376v1.8816a27.9808 27.9808 0 0 1-27.4688 28.48 22.6304 22.6304 0 0 0 25.9072 15.9104 23.9488 23.9488 0 0 0 1.5616-46.272z" fill="#FFCCA1" p-id="22707"></path><path d="M79.069824 109.5808a33.28 33.28 0 1 1 32.1152-33.28 32.7552 32.7552 0 0 1-32.1152 33.28z m0-51.0976A17.8304 17.8304 0 1 0 96.260224 76.3008a17.536 17.536 0 0 0-17.1904-17.8176z" fill="#413F4F" p-id="22708"></path><path d="M818.141824 607.2832L186.922624 842.1376c-58.6624 21.824-103.9104-59.6992-54.272-98.7648l1.1392-0.8832a76.6336 76.6336 0 0 1 26.2528-130.0352c-29.3504-51.2768 10.1632-116.7104 67.4048-112.9344-10.0352-58.6496 48.2432-106.1632 100.9024-82.4192a357.9776 357.9776 0 0 1 250.1376-37.12 72.5888 72.5888 0 0 1 119.04 49.472c53.76-20.7744 109.0944 30.72 95.5008 88.4736a68.4288 68.4288 0 0 1 31.0144 6.9888c34.2016 16.64 29.632 69.1328-5.9008 82.368z" fill="#FFCCA1" p-id="22709"></path><path d="M152.605824 681.4208a69.952 69.952 0 0 1 8.1024-6.2592 26.3296 26.3296 0 0 0 10.9312-28.4928 76.544 76.544 0 0 1 54.784-91.5584 25.8688 25.8688 0 0 0 19.7888-22.9504 74.6496 74.6496 0 0 1 81.8048-66.7904 25.0368 25.0368 0 0 0 26.0992-14.592 72.7552 72.7552 0 0 1 98.8416-33.6 24.6016 24.6016 0 0 0 29.44-4.3136 72.0896 72.0896 0 0 1 104.0128 3.4688 24.576 24.576 0 0 0 29.0048 6.3232 72.96 72.96 0 0 1 96.576 39.9744 24.7808 24.7808 0 0 0 24.8064 16.256 61.44 61.44 0 0 1 4.0704-0.1792 25.0624 25.0624 0 0 0 9.8944-47.7184 67.84 67.84 0 0 0-33.4208-6.0544 24.7296 24.7296 0 0 1-24.768-16.2304 72.96 72.96 0 0 0-96.576-40 24.5632 24.5632 0 0 1-29.0048-6.3232 72.0896 72.0896 0 0 0-104.0128-3.4688 24.6016 24.6016 0 0 1-29.44 4.3136 72.7552 72.7552 0 0 0-98.8416 33.6 25.0624 25.0624 0 0 1-26.112 14.592 74.6752 74.6752 0 0 0-81.8048 66.7904 25.8304 25.8304 0 0 1-19.776 22.9504 76.544 76.544 0 0 0-54.4896 92.7744 24.32 24.32 0 0 1-10.3936 26.7264 72.96 72.96 0 0 0-27.264 32.1792 24.2432 24.2432 0 0 0 37.7472 28.5824z" fill="#FDE0C2" p-id="22710"></path><path d="M818.141824 607.2832L186.922624 842.1376c-58.6624 21.824-103.9104-59.6992-54.272-98.7648l1.1392-0.8832a76.6336 76.6336 0 0 1 26.2528-130.0352c-29.3504-51.2768 10.1632-116.7104 67.4048-112.9344-10.0352-58.6496 48.2432-106.1632 100.9024-82.4192a357.9776 357.9776 0 0 1 250.1376-37.12 72.5888 72.5888 0 0 1 119.04 49.472c53.76-20.7744 109.0944 30.72 95.5008 88.4736a68.4288 68.4288 0 0 1 31.0144 6.9888c34.2016 16.64 29.632 69.1328-5.9008 82.368z" opacity=".1" p-id="22711"></path><path d="M812.497024 571.8528a68.4544 68.4544 0 0 1 31.0144 6.9888c0.4224 0.2048 0.7936 0.4864 1.2032 0.704a43.8144 43.8144 0 0 0-20.6464-54.656 69.12 69.12 0 0 0-18.2528-5.8368 75.52 75.52 0 0 1 6.6816 52.8z" fill="#FDE0C2" p-id="22712"></path><path d="M131.626624 831.3728a53.5424 53.5424 0 0 1 20.48-34.048l1.1392-0.8832a73.8944 73.8944 0 0 1-25.2288-48.64 57.4208 57.4208 0 0 0 3.6096 83.5712z" fill="#FDE0C2" p-id="22713"></path><path d="M766.045824 473.2928a68.1216 68.1216 0 0 1 25.728 4.7744 76.9792 76.9792 0 0 0-25.1136-37.12 75.8656 75.8656 0 0 1-0.6144 32.3456z" fill="#FFBC8A" p-id="22714"></path><path d="M824.029824 524.9024c-1.28-0.6272-2.56-1.1136-3.9168-1.6512a45.568 45.568 0 0 1-29.0432 39.424L159.863424 797.5296a52.0064 52.0064 0 0 1-47.9488-5.0176 56.6016 56.6016 0 0 0 74.9696 49.6256l631.2064-234.8544c35.5968-13.2352 40.1664-65.728 5.9392-82.3808z" fill="#FFBC8A" p-id="22715"></path><path d="M675.409024 383.3472a71.68 71.68 0 0 0-6.0032-5.1968c0.4096 2.2144 0.9088 4.3776 1.152 6.6688 1.6128-0.6144 3.2256-0.9728 4.8512-1.472z" fill="#FFBC8A" p-id="22716"></path><path d="M157.341824 542.976a524.0832 524.0832 0 0 1 53.248-42.368 73.5744 73.5744 0 0 0-53.248 42.368z" fill="#E7BC60" p-id="22717"></path><path d="M512.183424 525.4144a408.192 408.192 0 0 1 53.76-7.68 57.344 57.344 0 0 0-53.76 7.68z" fill="#F1D49A" p-id="22718"></path><path d="M632.605824 547.2768a16.5376 16.5376 0 0 0 0-32.9856 16.5376 16.5376 0 0 0 0 32.9856z" fill="#FFBC8A" p-id="22719"></path><path d="M577.565824 490.176a16.5376 16.5376 0 0 0 0-32.9856 16.5376 16.5376 0 0 0 0 32.9856z" fill="#FFBC8A" p-id="22720"></path><path d="M517.521024 592.9216a16.5376 16.5376 0 0 0 0-32.9856 16.5376 16.5376 0 0 0 0 32.9856z" fill="#FFBC8A" p-id="22721"></path><path d="M464.490624 509.9776a16.5376 16.5376 0 0 0 0-32.9856 16.5376 16.5376 0 0 0 0 32.9856z" fill="#FFBC8A" p-id="22722"></path><path d="M417.450624 623.0144a16.5376 16.5376 0 0 0 0-32.9856 16.5376 16.5376 0 0 0 0 32.9856z" fill="#FFBC8A" p-id="22723"></path><path d="M393.437824 686.2976a16.5376 16.5376 0 0 0 0-32.9856 16.5376 16.5376 0 0 0 0 32.9856z" fill="#FFBC8A" p-id="22724"></path><path d="M267.345024 690.432a16.5376 16.5376 0 0 0 0-32.9856 16.5376 16.5376 0 0 0 0 32.9856z" fill="#FFBC8A" p-id="22725"></path><path d="M347.396224 582.5408a16.5376 16.5376 0 0 0 0-32.9856 16.5376 16.5376 0 0 0 0 32.9856z" fill="#FFBC8A" p-id="22726"></path><path d="M221.316224 750.6048a16.5376 16.5376 0 0 0 0-32.9856 16.5376 16.5376 0 0 0 0 32.9856z" fill="#FFBC8A" p-id="22727"></path><path d="M188.292224 705.9968a16.5376 16.5376 0 0 0 0-32.9856 16.5376 16.5376 0 0 0 0 32.9856z" fill="#FFBC8A" p-id="22728"></path><path d="M418.449024 474.6624a16.5376 16.5376 0 0 0 0-32.9856 16.5376 16.5376 0 0 0 0 32.9856z" fill="#FFBC8A" p-id="22729"></path><path d="M532.548224 439.3856a16.5376 16.5376 0 0 0 0-32.9856 16.5376 16.5376 0 0 0 0 32.9856z" fill="#FFBC8A" p-id="22730"></path><path d="M874.884224 837.824l-670.4512 16.64c-62.2976 1.536-80.448-90.6112-21.4528-111.4624l1.3568-0.4608c-30.464-50.7136 6.8992-117.1968 64.4608-114.816-12.2624-58.2528 45.1328-107.4432 98.3168-85.1456a72.6784 72.6784 0 0 1 120.8192-45.2352 71.8592 71.8592 0 0 1 128.192 0.512 72.6272 72.6272 0 0 1 120.4736 46.0032c53.1328-21.9008 110.3104 27.52 97.9328 85.8496 57.3312-2.1376 94.208 64.768 63.7312 115.2a70.0672 70.0672 0 0 1 27.3024 16.768 45.2608 45.2608 0 0 1-30.6816 76.1472z" fill="#FFCCA1" p-id="22731"></path><path d="M220.740224 690.6752a66.9952 66.9952 0 0 1 9.5872-3.2896 25.6 25.6 0 0 0 19.0336-23.4752 74.5088 74.5088 0 0 1 79.8464-68.9792 25.1264 25.1264 0 0 0 25.7536-15.36 72.96 72.96 0 0 1 97.9456-36.6464 24.576 24.576 0 0 0 29.2096-5.312 72.128 72.128 0 0 1 104.0128 0.4096 24.64 24.64 0 0 0 29.2352 5.5296 72.8448 72.8448 0 0 1 97.6512 37.2736 25.0496 25.0496 0 0 0 25.6 15.4752 74.752 74.752 0 0 1 79.488 69.5168 25.4976 25.4976 0 0 0 18.5984 23.5136c1.28 0.3584 2.56 0.7424 3.84 1.1648a24.7936 24.7936 0 0 0 23.9232-42.048 69.2864 69.2864 0 0 0-29.8752-16.64 25.4976 25.4976 0 0 1-18.5728-23.5136 74.752 74.752 0 0 0-79.488-69.5168 25.0624 25.0624 0 0 1-25.6-15.4752 72.8576 72.8576 0 0 0-97.664-37.2864 24.6272 24.6272 0 0 1-29.2224-5.5168 72.128 72.128 0 0 0-104.0128-0.4096 24.5888 24.5888 0 0 1-29.2224 5.2992 72.96 72.96 0 0 0-97.9328 36.6592 25.1392 25.1392 0 0 1-25.7536 15.36 74.5088 74.5088 0 0 0-79.9232 70.2208 23.6032 23.6032 0 0 1-17.984 21.9648 70.6432 70.6432 0 0 0-35.648 21.632 24.64 24.64 0 0 0 27.1744 39.4496z" fill="#FDE0C2" p-id="22732"></path><path d="M880.234624 802.368a70.0544 70.0544 0 0 1 27.3152 16.768c0.3328 0.3456 0.5888 0.7168 0.9216 1.0624a44.3264 44.3264 0 0 0-2.9696-58.624 70.7072 70.7072 0 0 0-15.552-11.52 75.4048 75.4048 0 0 1-9.7152 52.3136z" fill="#FDE0C2" p-id="22733"></path><path d="M155.217024 826.0992a51.8272 51.8272 0 0 1 29.7856-25.6c0.4608-0.1664 0.896-0.32 1.3568-0.4608a75.392 75.392 0 0 1-9.152-54.4256 57.0752 57.0752 0 0 0-21.9904 80.4864z" fill="#FDE0C2" p-id="22734"></path><path d="M866.193024 693.6576a69.6064 69.6064 0 0 1 22.9504 12.928 78.9888 78.9888 0 0 0-12.544-43.3664 75.392 75.392 0 0 1-10.4064 30.4384z" fill="#FFBC8A" p-id="22735"></path><path d="M905.565824 761.5744c-1.024-0.9984-2.1376-1.8944-3.2128-2.8416a44.2112 44.2112 0 0 1-39.5392 27.9168l-670.4512 16.64a52.8768 52.8768 0 0 1-43.9808-20.48c-6.6304 33.1136 15.0656 72.6016 56.0512 71.5904l670.4512-16.64a45.2608 45.2608 0 0 0 30.6816-76.1856z" fill="#FFBC8A" p-id="22736"></path><path d="M807.517824 578.6624a77.504 77.504 0 0 0-4.1216-6.8992c-0.2688 2.24-0.4608 4.4544-0.9472 6.72 1.7152-0.064 3.392 0.128 5.0688 0.1792z" fill="#FFBC8A" p-id="22737"></path><path d="M267.332224 560.832a510.4 510.4 0 0 1 63.424-22.8096 71.68 71.68 0 0 0-63.424 22.8096z" fill="#E7BC60" p-id="22738"></path><path d="M609.373824 660.1216a408.7424 408.7424 0 0 1 53.312 10.3168 57.4464 57.4464 0 0 0-53.312-10.3168z" fill="#F1D49A" p-id="22739"></path><path d="M722.077824 721.088a16.5376 16.5376 0 0 0 0-32.9856 16.5376 16.5376 0 0 0 0 32.9856z" fill="#FFBC8A" p-id="22740"></path><path d="M687.197824 648.96a16.5376 16.5376 0 0 0 0-32.9856 16.5376 16.5376 0 0 0 0 32.9856z" fill="#FFBC8A" p-id="22741"></path><path d="M598.980224 726.7968a16.5376 16.5376 0 0 0 0-32.9856 16.5376 16.5376 0 0 0 0 32.9856z" fill="#FFBC8A" p-id="22742"></path><path d="M573.892224 630.7072a16.5376 16.5376 0 0 0 0-32.9856 16.5376 16.5376 0 0 0 0 32.9856z" fill="#FFBC8A" p-id="22743"></path><path d="M494.852224 722.6368a16.5376 16.5376 0 0 0 0-32.9856 16.5376 16.5376 0 0 0 0 32.9856z" fill="#FFBC8A" p-id="22744"></path><path d="M452.817024 774.848a16.5376 16.5376 0 0 0 0-32.9856 16.5376 16.5376 0 0 0 0 32.9856z" fill="#FFBC8A" p-id="22745"></path><path d="M331.908224 737.5872a16.5376 16.5376 0 0 0 0-32.9856 16.5376 16.5376 0 0 0 0 32.9856z" fill="#FFBC8A" p-id="22746"></path><path d="M440.682624 661.3504a16.5376 16.5376 0 0 0 0-32.9856 16.5376 16.5376 0 0 0 0 32.9856z" fill="#FFBC8A" p-id="22747"></path><path d="M269.917824 779.6352a16.5376 16.5376 0 0 0 0-32.9856 16.5376 16.5376 0 0 0 0 32.9856z" fill="#FFBC8A" p-id="22748"></path><path d="M252.138624 726.5152a16.5376 16.5376 0 0 0 0-32.9856 16.5376 16.5376 0 0 0 0 32.9856z" fill="#FFBC8A" p-id="22749"></path><path d="M540.919424 582.1824a16.5376 16.5376 0 0 0 0-32.9856 16.5376 16.5376 0 0 0 0 32.9856z" fill="#FFBC8A" p-id="22750"></path><path d="M659.908224 585.9968a16.5376 16.5376 0 0 0 0-32.9856 16.5376 16.5376 0 0 0 0 32.9856z" fill="#FFBC8A" p-id="22751"></path><path d="M78.212224 843.968l867.5328-1.6384 0.2048 107.2128a61.8624 61.8624 0 0 1-61.7472 61.9776l-743.808 1.408a61.8624 61.8624 0 0 1-61.9776-61.7472L78.212224 843.968z" fill="#F3FBFE" p-id="22752"></path><path d="M896.977024 972.6976l-769.536 1.5104a52.608 52.608 0 0 1-49.1008-55.5008l0.0768 38.7968a52.5952 52.5952 0 0 0 49.1008 55.5008l769.5488-1.5104a52.6208 52.6208 0 0 0 48.896-55.6928l-0.0768-38.784a52.608 52.608 0 0 1-48.9088 55.68z" fill="#E3E8EE" p-id="22753"></path><path d="M10.743424 834.2144m25.9712 0l950.8352 0q25.9712 0 25.9712 25.9712l0 34.88q0 25.9712-25.9712 25.9712l-950.8352 0q-25.9712 0-25.9712-25.9712l0-34.88q0-25.9712 25.9712-25.9712Z" fill="#F3FBFE" p-id="22754"></path><path d="M992.004224 889.7536H32.260224a21.9392 21.9392 0 0 1-21.5168-22.3104v31.296a21.9392 21.9392 0 0 0 21.5168 22.3104h959.744a21.9392 21.9392 0 0 0 21.5168-22.3104v-31.296a21.9392 21.9392 0 0 1-21.5168 22.3104z" fill="#E3E8EE" p-id="22755"></path><path d="M992.004224 834.2144H32.260224a21.9392 21.9392 0 0 0-21.5168 22.3104v29.6576A21.9392 21.9392 0 0 1 32.260224 863.872h959.744a21.9392 21.9392 0 0 1 21.5168 22.3104v-29.6576a21.9392 21.9392 0 0 0-21.5168-22.3104z" fill="#FFFFFF" p-id="22756"></path><path d="M469.367424 138.6496l28.9792 8.2304a3.3152 3.3152 0 0 1 2.2272 2.1632l9.8816 29.44a13.888 13.888 0 0 0 11.4176 9.5488 13.2864 13.2864 0 0 0 1.7408 0.1152 13.7088 13.7088 0 0 0 11.52-6.5024l16.4992-26.0224a3.2512 3.2512 0 0 1 2.6752-1.536l30.0288-0.6656a13.7728 13.7728 0 0 0 12.288-8.2944 14.72 14.72 0 0 0-1.728-15.0912l-18.7904-24.32a3.4944 3.4944 0 0 1-0.576-3.1104l8.6784-29.8112a14.656 14.656 0 0 0-3.84-14.6816 13.4016 13.4016 0 0 0-14.3872-2.944l-28.16 10.9952a3.2896 3.2896 0 0 1-3.0336-0.3968l-24.6784-17.7408a13.3504 13.3504 0 0 0-14.6432-0.7936 14.4256 14.4256 0 0 0-7.1424 13.2736l1.3952 31.104a3.4304 3.4304 0 0 1-1.28 2.8672L464.516224 113.3184a14.5664 14.5664 0 0 0-5.2352 14.208 14.08 14.08 0 0 0 10.0864 11.1232z m1.6896-16.64l23.9232-18.8288a14.6176 14.6176 0 0 0 5.4656-12.1344l-1.3952-31.104a3.3664 3.3664 0 0 1 1.6896-3.1488 3.456 3.456 0 0 1 1.6128-0.4352 3.1488 3.1488 0 0 1 1.8432 0.6272l24.6656 17.7536a13.504 13.504 0 0 0 12.8 1.664l28.16-10.9952a3.0976 3.0976 0 0 1 3.4048 0.6912 3.3792 3.3792 0 0 1 0.896 3.4688l-8.6784 29.824a14.8224 14.8224 0 0 0 2.4704 13.1584l18.7776 24.32a3.4176 3.4176 0 0 1 0.3968 3.5584 3.2 3.2 0 0 1-2.9056 1.9584l-30.0416 0.6656a13.824 13.824 0 0 0-11.3024 6.4896l-16.4992 26.0224a3.1488 3.1488 0 0 1-3.1488 1.5104 3.2 3.2 0 0 1-2.688-2.2656l-9.8816-29.44a14.08 14.08 0 0 0-9.4336-9.152l-28.9792-8.2304a3.3024 3.3024 0 0 1-2.3552-2.624 3.3664 3.3664 0 0 1 1.2416-3.3152z" fill="#384169" p-id="22757"></path><path d="M992.004224 823.232h-72.6656a57.6 57.6 0 0 0 5.7728-11.2384 54.2848 54.2848 0 0 0-12.224-58.368 80.832 80.832 0 0 0-19.8272-14.4256 89.1008 89.1008 0 0 0-4.672-77.4016 81.3824 81.3824 0 0 0-61.696-42.6496c0.0768-1.28 0-2.56 0-3.9296a57.0112 57.0112 0 0 0 31.2448-48.8704 53.2096 53.2096 0 0 0-29.3504-51.4048 79.0912 79.0912 0 0 0-23.1936-7.1936 87.9488 87.9488 0 0 0-27.968-71.936 79.4496 79.4496 0 0 0-71.5392-20.3008 83.5584 83.5584 0 0 0-49.3824-57.4464 80.8448 80.8448 0 0 0-74.9312 6.0928 82.56 82.56 0 0 0-53.3504-35.392c-0.2944 0-0.5888-0.064-0.8832-0.1152a88.4736 88.4736 0 0 0-7.8336-0.9856 9.3568 9.3568 0 0 0-1.7536 0.2048 101.12 101.12 0 0 0-57.9072 19.2 82.176 82.176 0 0 0-11.8656 12.5184 80.512 80.512 0 0 0-73.92-11.0208 84.48 84.48 0 0 0-53.1328 54.1952 80.0512 80.0512 0 0 0-73.1648 16.064 86.3488 86.3488 0 0 0-32 69.8752 83.2 83.2 0 0 0-63.7568 41.3568 86.784 86.784 0 0 0-6.6304 76.352 84.2624 84.2624 0 0 0-46.1824 60.7232 86.9504 86.9504 0 0 0 18.9312 74.9312 66.88 66.88 0 0 0-8.96 77.5296c0.6528 1.28 1.5488 2.4192 2.304 3.648h-79.232a32.768 32.768 0 0 0-32.128 33.28v42.24a32.7808 32.7808 0 0 0 32.128 33.28h35.5072v27.9424a64.8704 64.8704 0 0 0 18.2016 45.312 60.352 60.352 0 0 0 43.6608 18.688h0.1152l765.0176-1.4848a60.4416 60.4416 0 0 0 43.7248-18.8672 64.9856 64.9856 0 0 0 18.0352-45.3888v-26.2016h35.4816a32.768 32.768 0 0 0 32.128-33.28v-42.24a32.768 32.768 0 0 0-32.1024-33.2928z m-121.9968-150.4512a65.28 65.28 0 0 1-0.7296 66.1888 11.1488 11.1488 0 0 0 5.7728 16.3328 59.1744 59.1744 0 0 1 23.2064 14.2464 31.6544 31.6544 0 0 1 7.0528 34.56 35.1744 35.1744 0 0 1-16.7296 19.2H166.186624a51.968 51.968 0 0 1-7.7568-19.4816 43.3152 43.3152 0 0 1 28.0704-50.4064l1.1008-0.384a10.7904 10.7904 0 0 0 6.7072-6.6816 11.392 11.392 0 0 0-0.9472-9.6 64.5888 64.5888 0 0 1 52.48-98.0736h2.56a9.792 9.792 0 0 0 8.5376-3.9168 11.2896 11.2896 0 0 0 2.24-9.3952 63.0272 63.0272 0 0 1 83.9808-72.6272 10.24 10.24 0 0 0 9.2544-0.6656 10.9568 10.9568 0 0 0 5.2224-7.936 62.1312 62.1312 0 0 1 103.2576-38.6432 10.24 10.24 0 0 0 8.96 2.6368 10.6112 10.6112 0 0 0 7.5136-5.6576 61.44 61.44 0 0 1 109.44 0.448 10.4192 10.4192 0 0 0 16.4224 3.1488c32.6016-29.8752 86.0288-18.0224 101.8112 33.0624l1.28 6.7328a10.5728 10.5728 0 0 0 14.3488 8.1792 59.4432 59.4432 0 0 1 63.0144 11.264 64 64 0 0 1 20.6464 62.016 11.3664 11.3664 0 0 0 2.2016 9.408 9.5872 9.5872 0 0 0 8.5376 3.9296 60.16 60.16 0 0 1 54.9376 32.1152zM127.825024 809.088a44.096 44.096 0 0 1 11.2384-56.9728l-6.208-8.4608 7.104 7.7824a11.2512 11.2512 0 0 0 0.5888-17.3824 64.2944 64.2944 0 0 1-20.6592-62.3872 62.1696 62.1696 0 0 1 43.072-48.64 10.7904 10.7904 0 0 0 6.9248-6.528 11.3664 11.3664 0 0 0-0.7424-9.664 64.2816 64.2816 0 0 1 0.8832-65.28 60.7616 60.7616 0 0 1 56.7296-31.04 10.5344 10.5344 0 0 0 8.576-3.648 11.2768 11.2768 0 0 0 2.56-9.2416 64.4736 64.4736 0 0 1 23.04-61.44 59.5456 59.5456 0 0 1 63.2448-8.96 10.24 10.24 0 0 0 9.28-0.4096 10.9952 10.9952 0 0 0 5.4016-7.8336 62.144 62.144 0 0 1 41.8688-49.4848 59.136 59.136 0 0 1 62.1312 14.144 10.24 10.24 0 0 0 8.8192 2.9824 10.5856 10.5856 0 0 0 7.68-5.376 62.1952 62.1952 0 0 1 13.4912-16.768 78.7584 78.7584 0 0 1 49.2672-14.1568 62.72 62.72 0 0 1 6.848 1.1392h0.384a65.5488 65.5488 0 0 1 36.672 27.8272l3.2128 5.9904a10.4064 10.4064 0 0 0 16.1024 3.0976 59.392 59.392 0 0 1 63.232-9.9328 62.4768 62.4768 0 0 1 38.4 52.1344 11.0464 11.0464 0 0 0 4.9536 8.192 10.24 10.24 0 0 0 9.3056 0.9472 58.88 58.88 0 0 1 62.0544 12.5056 64.6528 64.6528 0 0 1 19.4304 63.0656 11.3024 11.3024 0 0 0 2.0096 9.4336 10.6624 10.6624 0 0 0 8.4352 4.16 60.2368 60.2368 0 0 1 26.368 5.952 31.0528 31.0528 0 0 1 17.1904 30.464 35.84 35.84 0 0 1-12.8 26.1504 86.4 86.4 0 0 0-26.6624-42.9568 81.2288 81.2288 0 0 0-72.96-18.7008 372.6848 372.6848 0 0 0-259.1104-48.5632 83.2 83.2 0 0 0-125.952 47.168 84.7744 84.7744 0 0 0-102.6048 88.6912 87.04 87.04 0 0 0-67.1104 119.8592 65.856 65.856 0 0 0-32 70.656 74.24 74.24 0 0 0 4.5952 15.6288h-3.3152a51.0208 51.0208 0 0 1-11.008-14.144z m807.5136 149.1968a42.688 42.688 0 0 1-11.8528 29.824 39.68 39.68 0 0 1-28.7232 12.4032l-765.0176 1.4848h-0.064a41.4464 41.4464 0 0 1-40.6528-42.0608v-27.8912h846.3232z m67.5712-59.5584a11.136 11.136 0 0 1-10.9184 11.3152H32.247424a11.136 11.136 0 0 1-10.9184-11.3152v-42.24a11.136 11.136 0 0 1 10.9184-11.3152h959.744a11.136 11.136 0 0 1 10.9184 11.3152z" fill="#043945" p-id="22758"></path><path d="M662.327424 249.8816a60.7232 60.7232 0 0 1 59.392 61.5808 5.4272 5.4272 0 0 0 5.312 5.504h1.6a5.3632 5.3632 0 0 0 5.2992-5.504 60.6336 60.6336 0 0 1 59.5072-61.5808 5.4912 5.4912 0 0 0 5.2992-5.504v-1.7536a5.4912 5.4912 0 0 0-5.2992-5.504 60.9792 60.9792 0 0 1-59.5072-61.5808 5.3632 5.3632 0 0 0-5.2992-5.504h-1.6a5.3632 5.3632 0 0 0-5.312 5.504 60.6208 60.6208 0 0 1-59.392 61.5808 5.4144 5.4144 0 0 0-5.312 5.504v1.7536a5.4144 5.4144 0 0 0 5.312 5.504z m65.5488-48.8192a42.4192 42.4192 0 0 1-0.1152 84.7744 42.4192 42.4192 0 0 1 0.1152-84.7744z" fill="#384169" p-id="22759"></path></svg>