<?xml version="1.0" standalone="no"?><!DOCTYPE svg PUBLIC "-//W3C//DTD SVG 1.1//EN" "http://www.w3.org/Graphics/SVG/1.1/DTD/svg11.dtd"><svg t="1604739094411" class="icon" viewBox="0 0 1024 1024" version="1.1" xmlns="http://www.w3.org/2000/svg" p-id="22108" xmlns:xlink="http://www.w3.org/1999/xlink" width="9" height="9"><defs><style type="text/css"></style></defs><path d="M797.1 389.8h-67c-8.6-18.7-77.5-157.9-278.4-157.8-149.3 0-437.2 156.9-424.3 194.2 6.6 19.2 19.4 30.3 23.7 80.7 3.1 35.8 10.4 80.1 10.4 80.1 0 55.9 45.3 101.3 101.3 101.3H997v-133c0-110.5-89.5-165.5-199.9-165.5z" fill="#D64F34" p-id="22109"></path><path d="M997 698.2H162.7c-61.1 0-110.8-49.5-111.3-110.4-1-6.2-7.5-46.9-10.4-80.1-3-35.1-10.1-49.8-16.4-62.7-2.5-5.1-4.8-10-6.8-15.6-2.3-6.8-0.5-14.5 5.6-23 19.8-27.8 91-73.2 177.3-113 98.4-45.4 189.8-71.5 250.8-71.5h0.2c189.9 0 265.8 121 284.5 157.8h60.7c59.2 0 110.2 15 147.4 43.4 40.9 31.2 62.5 76.8 62.5 132.1v133c0.2 5.5-4.2 10-9.8 10zM37 423.4c1.6 4.4 3.5 8.4 5.7 13 6.7 13.7 15 30.9 18.3 69.7 3 35 10.2 78.9 10.3 79.3 0.1 0.5 0.1 1.1 0.1 1.6 0 50.3 40.9 91.3 91.3 91.3H987v-123c0-48.8-18.9-89-54.6-116.2-33.7-25.7-80.5-39.3-135.3-39.3h-67c-3.9 0-7.4-2.3-9.1-5.8-11.7-25.4-79.8-152-269.2-152h-0.2c-62.1 0-159.9 29.5-261.7 78.7-42.6 20.6-81.8 43-110.5 62.9-38.2 26.7-42 38.1-42.4 39.8z" fill="#000000" p-id="22110"></path><path d="M451.7 231.9c-63.5 0-143 31.8-221.6 71.8l61 160.6h370.2l68.9-74.6c-8.7-18.6-77.5-157.9-278.5-157.8z" fill="#80F9E7" p-id="22111"></path><path d="M661.3 474.4H291.1c-4.2 0-7.9-2.6-9.3-6.5l-61-160.6c-1.8-4.8 0.3-10.1 4.8-12.5 97.6-49.7 169.5-72.9 226.2-72.9h0.2c201.6 0 274.7 136.3 287.3 163.7 1.7 3.7 1 8-1.7 11l-68.9 74.6c-2 2-4.6 3.2-7.4 3.2z m-363.3-20h358.9l61.3-66.4c-17.9-34.9-88.8-146.1-266.3-146.1h-0.2c-51.2 0-119.6 21.8-209.1 66.7L298 454.4z" fill="#000000" p-id="22112"></path><path d="M478.9 231.9v232.5" fill="#80F9E7" p-id="22113"></path><path d="M476.2 474.4c-5.5 0-10-4.5-10-10V231.9c0-5.5 4.5-10 10-10s10 4.5 10 10v232.5c0 5.5-4.5 10-10 10z" fill="#000000" p-id="22114"></path><path d="M170.5 688.2a103.3 103.3 0 1 0 206.6 0 103.3 103.3 0 0 0-206.6 0z" fill="#B6B7B7" p-id="22115"></path><path d="M273.8 801.5c-62.5 0-113.3-50.8-113.3-113.3s50.8-113.3 113.3-113.3 113.3 50.8 113.3 113.3-50.8 113.3-113.3 113.3z m0-206.6c-51.5 0-93.3 41.9-93.3 93.3 0 51.5 41.9 93.3 93.3 93.3 51.5 0 93.3-41.9 93.3-93.3s-41.8-93.3-93.3-93.3z" fill="#000000" p-id="22116"></path><path d="M661.3 688.2c0 57.051 46.249 103.3 103.3 103.3 57.051 0 103.3-46.249 103.3-103.3 0-57.051-46.249-103.3-103.3-103.3-57.051 0-103.3 46.249-103.3 103.3z" fill="#B6B7B7" p-id="22117"></path><path d="M764.6 801.5c-62.5 0-113.3-50.8-113.3-113.3s50.8-113.3 113.3-113.3 113.3 50.8 113.3 113.3-50.8 113.3-113.3 113.3z m0-206.6c-51.5 0-93.3 41.9-93.3 93.3 0 51.5 41.9 93.3 93.3 93.3s93.3-41.9 93.3-93.3-41.9-93.3-93.3-93.3z" fill="#000000" p-id="22118"></path></svg>