<?xml version="1.0" standalone="no"?><!DOCTYPE svg PUBLIC "-//W3C//DTD SVG 1.1//EN" "http://www.w3.org/Graphics/SVG/1.1/DTD/svg11.dtd"><svg t="1603769557328" class="icon" viewBox="0 0 1024 1024" version="1.1" xmlns="http://www.w3.org/2000/svg" p-id="1564" xmlns:xlink="http://www.w3.org/1999/xlink" width="200" height="200"><defs><style type="text/css"></style></defs><path d="M659.149896 263.254729c138.90563 75.613118 268.552385 248.956072 268.552386 408.761708 0 211.918527-203.784266 319.783187-415.718143 319.783187s-415.718143-107.86466-415.718143-319.783187c0-161.1564 131.302465-336.077292 272.081768-410.658917 59.94323-23.577998 230.718709-21.024849 290.802132 1.897209z" fill="#32B323" p-id="1565"></path><path d="M511.984139 1007.788783c-207.921493 0-431.707302-105.084337-431.707303-335.772346 0-172.851767 142.66935-351.72262 280.591583-424.789753a15.141862 15.141862 0 0 1 1.623987-0.74906c40.472783-15.919575 113.453958-17.636682 142.949736-17.636682 52.386114 0 121.761158 5.113461 159.40757 19.478633 0.671289 0.249687 1.310855 0.546446 1.951445 0.890277 134.220934 73.068156 276.890284 246.083651 276.890284 422.807608 0 230.686986-223.784786 335.771323-431.707302 335.771323z m-136.969535-731.863476c-129.302925 68.906369-262.759449 235.629555-262.759449 396.09113 0 208.717625 207.203132 303.794028 399.728984 303.794028s399.728984-95.076402 399.728984-303.794028c0-158.01792-131.629923-324.257082-259.230067-394.185734-28.043706-10.352789-85.519746-17.012466-147.040914-17.012466-57.008388 0-105.631806 5.637394-130.427538 15.10707z" fill="#3A7334" p-id="1566"></path><path d="M511.984139 416.283008c95.373161 1.530866 190.245925 96.396467 191.775768 191.776791-1.529843 95.372138-96.402607 190.229552-191.775768 191.761442-95.373161-1.530866-190.245925-96.388281-191.775768-191.761442 1.529843-95.380324 96.402607-190.245925 191.775768-191.776791z" fill="#FFFFFF" p-id="1567"></path><path d="M336.103386 64.420195c79.945797-41.572838 284.603967-44.313252 351.761506 0 0 71.724555-72.717162 57.866942-79.945797 127.913275-74.011644-14.614859-120.152521-16.902972-191.869912 0 0-76.790944-79.945797-59.388599-79.945797-127.913275z" fill="#32B323" p-id="1568"></path><path d="M416.049183 208.322629a16.042371 16.042371 0 0 1-9.931187-3.450588 16.008602 16.008602 0 0 1-6.057973-12.538571c0-31.096229-15.34857-41.675168-34.772968-55.072293-20.126386-13.881149-45.172829-31.15865-45.172828-72.840982 0-5.964852 3.325745-11.437493 8.619308-14.18507 40.34794-20.985964 113.672946-34.016745 191.370538-34.016745 37.20946 0 128.881322 3.396353 176.568415 34.858926a15.994276 15.994276 0 0 1 7.182586 13.342889c0 44.813648-25.045419 63.49615-45.172829 78.509075-17.909905 13.358239-32.05609 23.913643-34.851762 51.043536a16.041348 16.041348 0 0 1-6.401804 11.218506c-3.622504 2.677992-8.244778 3.701299-12.600992 2.826372-41.48688-8.18952-69.562309-11.531638-96.933703-11.531638-27.497261 0-54.697763 3.521197-88.175225 11.405771a15.82543 15.82543 0 0 1-3.669576 0.430812z m91.843778-43.813878c25.497721 0 52.245921 2.771113 87.300298 9.134031 8.181333-29.362748 27.981285-44.118823 44.360324-56.345286 16.693194-12.444427 29.262464-21.820981 31.838125-43.985793-30.292933-15.614629-86.800925-25.116027-151.288658-25.116028-66.970274 0-129.567961 9.837042-167.261445 25.998118 2.966565 17.675568 14.427594 25.591865 30.604019 36.740785 18.424628 12.709463 40.691771 28.059056 46.905286 61.880349 28.138874-5.705955 52.621475-8.306176 77.542051-8.306176z" fill="#3A7334" p-id="1569"></path><path d="M523.554662 501.031181l94.873788 94.880951c6.54302 6.54302 6.54302 17.159822 0 23.701818l-94.873788 94.873787c-6.557346 6.557346-17.175171 6.557346-23.718191 0l-94.872764-94.873787c-6.558369-6.54302-6.558369-17.159822 0-23.701818l94.872764-94.880951c6.541997-6.551206 17.159822-6.551206 23.718191 0z" fill="#32B323" p-id="1570"></path></svg>