<?xml version="1.0" standalone="no"?><!DOCTYPE svg PUBLIC "-//W3C//DTD SVG 1.1//EN" "http://www.w3.org/Graphics/SVG/1.1/DTD/svg11.dtd"><svg t="1604739122166" class="icon" viewBox="0 0 1024 1024" version="1.1" xmlns="http://www.w3.org/2000/svg" p-id="22257" xmlns:xlink="http://www.w3.org/1999/xlink" width="9" height="9"><defs><style type="text/css"></style></defs><path d="M874.46 607.47c-0.52 23.92-5.71 139.72-96.71 226.38-86.9 82.76-194.18 83.82-246.17 84.34-53.18 0.53-156.15 1.55-241.77-75.46-93.98-84.53-100.59-203.28-101.11-235.26C185.68 421 342.28 276.53 439.27 261.24c7-1.1 47.63-6.88 101.11-4.44 47.81 2.19 83.74 9.93 90.73 11.55 90.46 20.96 247.36 154.53 243.35 339.12z" fill="#E83200" p-id="22258"></path><path d="M477.46 933.41c-25.88 0-59.93-1.11-96.75-8.99-53.66-11.47-100.5-34.78-139.23-69.28-93.14-82.96-104.93-197.62-105.67-243.07-1.41-85.75 30.96-172.53 91.13-244.35 51.1-60.99 116.59-104.14 170.93-112.62 4.71-0.74 47.68-7.12 104.23-4.56 49.86 2.26 86.65 10.24 93.52 11.81 24.72 5.67 52.74 18.6 81.03 37.39 30.02 19.94 58.85 45.63 83.35 74.28 27.91 32.64 49.79 68.28 65.04 105.94 17.32 42.79 25.61 87.25 24.62 132.16-0.46 20.95-3.44 54-15.02 92.51-16.8 55.87-45.73 103.45-85.99 141.42-90.79 85.63-202.25 86.72-255.81 87.25-4.73 0.06-9.87 0.11-15.38 0.11z m-2.38-662.07c-41.1 0-70.18 4.32-73.92 4.91-48.69 7.6-110.64 48.91-157.83 105.23-56.87 67.87-87.46 149.65-86.14 230.26 0.7 42.63 11.7 150.12 98.51 227.45 83.37 74.26 183.25 73.27 236.92 72.75 50.85-0.5 156.64-1.54 241.34-81.42 84.8-79.98 93.62-187.72 94.3-218.84 2.2-100.63-44.75-177.21-84.53-223.73-45-52.63-105.02-93.74-152.91-104.73-4.02-0.92-40.67-9.07-89.7-11.29-9.09-0.42-17.81-0.59-26.04-0.59z" p-id="22259"></path><path d="M489.66 443.49c-6.35 0-12.69-0.5-18.93-1.5-26.63-4.29-48.57-17.31-61.79-36.66-3.6-5.27-2.25-12.47 3.03-16.07 5.27-3.6 12.47-2.25 16.07 3.03 20.35 29.79 69.42 37.09 109.4 16.28 5.67-2.95 12.65-0.75 15.6 4.92 2.95 5.67 0.75 12.65-4.92 15.6-18.22 9.47-38.45 14.4-58.46 14.4z" p-id="22260"></path><path d="M478.09 431.96h-0.06c-6.39-0.03-11.54-5.24-11.51-11.63 0.01-2.13 0.46-52.88 17.32-116.4 9.93-37.43 23.55-71.5 40.46-101.27 21.33-37.54 47.99-68.3 79.23-91.43 5.13-3.8 12.38-2.72 16.18 2.41 3.8 5.13 2.72 12.38-2.42 16.18-65.12 48.21-96.36 124.52-111.1 180.05-16.11 60.69-16.54 110.09-16.55 110.58-0.02 6.37-5.19 11.51-11.55 11.51z" p-id="22261"></path><path d="M468.31 210.19s-171.87-29.9-129.66-96.35 129.66 96.35 129.66 96.35z" fill="#39B54A" p-id="22262"></path><path d="M468.31 218.1c-0.45 0-0.9-0.04-1.36-0.12-1.19-0.21-29.55-5.2-60.77-15.67-43.34-14.54-69.83-32.12-78.73-52.25-5.77-13.05-4.25-26.67 4.51-40.47C342.62 92.81 355.6 89.68 364.63 90c21 0.77 46.16 20.95 74.77 59.98 20.51 27.99 35.25 55.31 35.87 56.46a7.913 7.913 0 0 1-0.55 8.37 7.878 7.878 0 0 1-6.41 3.29z m-104.9-112.29c-6.92 0-12.83 4.02-18.07 12.27-5.83 9.18-6.95 17.55-3.4 25.58 12.17 27.55 73.75 46.83 110.8 55.28-6.25-10.47-15.48-25.14-26.18-39.73-24.84-33.86-47.03-52.82-62.48-53.38-0.24-0.01-0.46-0.02-0.67-0.02z m378.91 585.95c-2.21 0-4.42-0.85-6.1-2.56-3.31-3.37-3.26-8.78 0.11-12.08 36.69-36.05 25.23-107.42-25.54-159.1a8.547 8.547 0 0 1 0.11-12.09c3.37-3.31 8.78-3.26 12.08 0.11 27.47 27.96 45.39 62.14 50.46 96.22 5.21 35.09-3.71 66-25.13 87.04a8.48 8.48 0 0 1-5.99 2.46zM698.34 723a10 10 0 1 0 20 0 10 10 0 1 0-20 0z" p-id="22263"></path></svg>