<?xml version="1.0" standalone="no"?><!DOCTYPE svg PUBLIC "-//W3C//DTD SVG 1.1//EN" "http://www.w3.org/Graphics/SVG/1.1/DTD/svg11.dtd"><svg t="1604739184219" class="icon" viewBox="0 0 1024 1024" version="1.1" xmlns="http://www.w3.org/2000/svg" p-id="22544" xmlns:xlink="http://www.w3.org/1999/xlink" width="9" height="9"><defs><style type="text/css"></style></defs><path d="M969 457.46H313.91a139.21 139.21 0 0 1 0-278.38H969S900.35 256 900.35 318.25 969 457.46 969 457.46zM174.74 835.14h655.09a139.2 139.2 0 0 0 0-278.37H174.74s68.65 76.91 68.65 139.17-68.65 139.2-68.65 139.2z" fill="#E73F37" p-id="22545"></path><path d="M888.88 478.36H233.79a160.14 160.14 0 0 1 0-320.24h655.09A20.93 20.93 0 0 1 904.53 193C886.91 212.79 841 273.88 841 318.22s45.74 105.5 63.53 125.26a21 21 0 0 1-15.65 34.88zM233.79 200.05a118.24 118.24 0 0 0 0 236.47h612.49c-21.16-30.52-47-76.37-47-118.23s25.82-87.74 47-118.24z m515.92 656.16H94.62A21 21 0 0 1 79 821.33c17.62-19.83 63.53-80.89 63.53-125.26S96.8 590.57 79.18 570.85A20.93 20.93 0 0 1 94.79 536h654.92a160.14 160.14 0 0 1 4.63 320.24h-4.63z m-612.49-42h612.49a118.24 118.24 0 1 0 0-236.48H137.22c21.17 30.53 47 76.37 47 118.24s-25.82 87.74-46.82 118.24z" fill="#2C2C2C" p-id="22546"></path><path d="M328.09 518.21a21 21 0 0 1-20.93-21v-156a20.93 20.93 0 1 1 41.86 0v156.14a21 21 0 0 1-20.93 21z" fill="#2C2C2C" p-id="22547"></path></svg>