<?xml version="1.0" standalone="no"?><!DOCTYPE svg PUBLIC "-//W3C//DTD SVG 1.1//EN" "http://www.w3.org/Graphics/SVG/1.1/DTD/svg11.dtd"><svg t="1604738956923" class="icon" viewBox="0 0 1024 1024" version="1.1" xmlns="http://www.w3.org/2000/svg" p-id="21509" xmlns:xlink="http://www.w3.org/1999/xlink" width="9" height="9"><defs><style type="text/css"></style></defs><path d="M277.812 393.072h80v160h-80zM660.589 393.072h80v160h-80z" fill="#FC7070" p-id="21510"></path><path d="M289.976 858.111v50h-98s2-46 98-50z" fill="#FFC912" p-id="21511"></path><path d="M321.887 757.121c-4.771-2.778-10.895-1.163-13.674 3.608-15.622 26.823-24.986 56.919-27.454 87.893-95.37 6.869-98.678 56.867-98.773 59.054a10.001 10.001 0 0 0 9.991 10.435h98c5.523 0 10-4.478 10-10v-41.464c0.071-0.48 0.12-0.968 0.12-1.468 0-33.217 8.783-65.854 25.399-94.384 2.779-4.772 1.164-10.894-3.609-13.674z m-41.91 140.99h-73.462c7.237-10.468 25.855-25.567 73.462-29.38v29.38z" fill="#723703" p-id="21512"></path><path d="M733.781 858.111v50h98s-2-46-98-50zM733.704 874.989c0-36.241-9.745-70.206-26.758-99.417" fill="#FFC912" p-id="21513"></path><path d="M742.016 848.558c-3.513-27.48-12.472-54.055-26.428-78.018-2.779-4.771-8.899-6.388-13.675-3.608-4.771 2.78-6.388 8.902-3.608 13.675 16.616 28.529 25.399 61.167 25.399 94.384 0 0.403 0.031 0.799 0.077 1.19v31.933c0 5.522 4.478 10 10 10h98a9.999 9.999 0 0 0 9.991-10.435c-0.096-2.197-3.433-52.525-99.756-59.121z m1.765 49.553v-29.377c37.979 3.06 57.175 13.359 66.711 21.832 2.955 2.625 5.142 5.198 6.758 7.545h-73.469z" fill="#723703" p-id="21514"></path><path d="M735.475 324.252H282.926l203.647-203.647c12.497-12.497 32.758-12.497 45.255 0l203.647 203.647z" fill="#FC7070" p-id="21515"></path><path d="M813.732 550.299H204.669c-8.543 0-15.468 7.218-15.468 16.122v227.757c0 8.904 6.925 16.122 15.468 16.122h104.637c6.087 0 11.59-3.731 14.099-9.511C355.39 727.095 426.55 675.821 509.2 675.821s153.811 51.274 185.796 124.967c2.509 5.781 8.012 9.511 14.099 9.511h104.637c8.543 0 15.468-7.218 15.468-16.122V566.421c0-8.904-6.925-16.122-15.468-16.122z" fill="#FFC912" p-id="21516"></path><path d="M772.2 393.884h-526a8 8 0 0 1-8-8v-64a8 8 0 0 1 8-8h526a8 8 0 0 1 8 8v64a8 8 0 0 1-8 8z" fill="#AEE2FF" p-id="21517"></path><path d="M526.573 120.605a32.306 32.306 0 0 1 2.627-2.349c-12.565-10.086-30.972-9.306-42.627 2.349L293.294 313.884h40l193.279-193.279zM277.812 395.074h40V550.3h-40zM660.589 393.072h40v155.226h-40z" fill="#EA4F3B" p-id="21518"></path><path d="M229.2 794.178V566.421c0-8.904 6.925-16.122 15.468-16.122h-40c-8.543 0-15.468 7.218-15.468 16.122v227.757c0 8.904 6.925 16.122 15.468 16.122h40c-8.542-0.001-15.468-7.219-15.468-16.122z" fill="#FFB408" p-id="21519"></path><path d="M246.2 393.884h40a8 8 0 0 1-8-8v-64a8 8 0 0 1 8-8h-40a8 8 0 0 0-8 8v64a8 8 0 0 0 8 8z" fill="#64D0FF" p-id="21520"></path><path d="M792.638 688.851h-0.013a8 8 0 0 1-7.987-8.013l0.141-88a8 8 0 0 1 8-7.987h0.013a8 8 0 0 1 7.987 8.013l-0.141 88a8 8 0 0 1-8 7.987zM792.639 743.859h-0.058a8 8 0 0 1-7.943-8.057l0.141-20a8 8 0 0 1 7.999-7.943h0.058a8 8 0 0 1 7.943 8.057l-0.141 20a8.002 8.002 0 0 1-7.999 7.943z" fill="#FFFFFF" p-id="21521"></path><path d="M350.395 601.236m-32 0a32 32 0 1 0 64 0 32 32 0 1 0-64 0Z" fill="#FFFFFF" p-id="21522"></path><path d="M350.395 559.235c-18.31 0-33.911 11.782-39.646 28.159-70.537-18.832-109.536-47.99-115.953-86.723-8.73-52.701 44.43-106.479 52.256-112.507a9.98 9.98 0 0 0 5.77-6.235c1.674-5.263-1.235-10.887-6.498-12.561-6.6-2.103-11.907 2.947-17.041 7.827-11.143 10.594-27.198 29.761-38.843 51.785-15.729 29.748-20.328 57.653-13.668 82.941 11.515 43.724 55.966 75.885 132.1 95.645 3.062 20.166 20.515 35.67 41.523 35.67 23.159 0 42-18.841 42-42s-18.841-42.001-42-42.001z m0 64c-12.131 0-22-9.869-22-22s9.869-22 22-22 22 9.869 22 22-9.869 22-22 22z" fill="#723703" p-id="21523"></path><path d="M671.663 601.236m-32 0a32 32 0 1 0 64 0 32 32 0 1 0-64 0Z" fill="#FFFFFF" p-id="21524"></path><path d="M831.615 428.977c-11.646-22.023-27.701-41.19-38.844-51.784-5.132-4.879-10.438-9.923-17.038-7.825-5.264 1.674-8.173 7.298-6.498 12.561a9.981 9.981 0 0 0 5.771 6.236c7.831 6.034 60.984 59.81 52.255 112.507-6.417 38.733-45.416 67.891-115.952 86.723-5.734-16.377-21.336-28.159-39.646-28.159-23.159 0-42 18.841-42 42s18.841 42 42 42c21.008 0 38.461-15.504 41.523-35.67 76.134-19.759 120.586-51.921 132.1-95.645 6.659-25.29 2.06-53.196-13.671-82.944zM671.663 623.235c-12.131 0-22-9.869-22-22s9.869-22 22-22 22 9.869 22 22-9.869 22-22 22z" fill="#723703" p-id="21525"></path><path d="M373.907 256.413m-120 0a120 120 0 1 0 240 0 120 120 0 1 0-240 0Z" fill="#FFFFFF" p-id="21526"></path><path d="M373.907 126.413c-71.682 0-130 58.318-130 130s58.318 130 130 130 130-58.318 130-130-58.318-130-130-130z m0 240c-60.654 0-110-49.346-110-110s49.346-110 110-110 110 49.346 110 110-49.345 110-110 110z" fill="#723703" p-id="21527"></path><path d="M373.907 256.413m-32 0a32 32 0 1 0 64 0 32 32 0 1 0-64 0Z" fill="#723703" p-id="21528"></path><path d="M658.943 256.413m-120 0a120 120 0 1 0 240 0 120 120 0 1 0-240 0Z" fill="#FFFFFF" p-id="21529"></path><path d="M658.943 126.413c-71.683 0-130 58.318-130 130s58.317 130 130 130 130-58.318 130-130-58.317-130-130-130z m0 240c-60.654 0-110-49.346-110-110s49.346-110 110-110 110 49.346 110 110-49.345 110-110 110z" fill="#723703" p-id="21530"></path><path d="M658.943 256.413m-32 0a32 32 0 1 0 64 0 32 32 0 1 0-64 0Z" fill="#723703" p-id="21531"></path></svg>