<?xml version="1.0" standalone="no"?><!DOCTYPE svg PUBLIC "-//W3C//DTD SVG 1.1//EN" "http://www.w3.org/Graphics/SVG/1.1/DTD/svg11.dtd"><svg t="1603769783396" class="icon" viewBox="0 0 1024 1024" version="1.1" xmlns="http://www.w3.org/2000/svg" p-id="2150" xmlns:xlink="http://www.w3.org/1999/xlink" width="200" height="200"><defs><style type="text/css"></style></defs><path d="M967.111111 512c0-59.733333-11.377778-119.466667-34.133333-173.511111C853.333333 204.8 708.266667 113.777778 540.444444 113.777778 290.133333 113.777778 85.333333 318.577778 85.333333 568.888889c0 59.733333 11.377778 119.466667 34.133334 173.511111C199.111111 876.088889 344.177778 967.111111 512 967.111111c250.311111 0 455.111111-204.8 455.111111-455.111111z" fill="#F58243" p-id="2151"></path><path d="M540.444444 113.777778C290.133333 113.777778 85.333333 318.577778 85.333333 568.888889c0 51.2 8.533333 99.555556 22.755556 145.066667C190.577778 833.422222 327.111111 910.222222 483.555556 910.222222c250.311111 0 455.111111-204.8 455.111111-455.111111 0-51.2-8.533333-99.555556-22.755556-145.066667C833.422222 190.577778 696.888889 113.777778 540.444444 113.777778z" fill="#F5BA43" p-id="2152"></path><path d="M512 981.333333C253.155556 981.333333 42.666667 770.844444 42.666667 512S253.155556 42.666667 512 42.666667 981.333333 253.155556 981.333333 512 770.844444 981.333333 512 981.333333z m0-910.222222C270.222222 71.111111 71.111111 270.222222 71.111111 512s199.111111 440.888889 440.888889 440.888889 440.888889-199.111111 440.888889-440.888889S753.777778 71.111111 512 71.111111z" fill="#562D32" p-id="2153"></path><path d="M512 856.177778c170.666667 0 312.888889-125.155556 341.333333-290.133334 5.688889-28.444444-19.911111-56.888889-48.355555-56.888888H219.022222c-28.444444 0-54.044444 25.6-48.355555 56.888888 28.444444 164.977778 170.666667 290.133333 341.333333 290.133334" fill="#FFFFFF" p-id="2154"></path><path d="M284.444444 483.555556c-8.533333 0-14.222222-2.844444-19.911111-8.533334-11.377778-11.377778-11.377778-28.444444 0-39.822222l65.422223-65.422222-65.422223-65.422222c-11.377778-11.377778-11.377778-28.444444 0-39.822223s28.444444-11.377778 39.822223 0l85.333333 85.333334c11.377778 11.377778 11.377778 28.444444 0 39.822222l-85.333333 85.333333c-5.688889 5.688889-11.377778 8.533333-19.911112 8.533334zM768 483.555556c-8.533333 0-14.222222-2.844444-19.911111-8.533334l-85.333333-85.333333c-11.377778-11.377778-11.377778-28.444444 0-39.822222l85.333333-85.333334c11.377778-11.377778 28.444444-11.377778 39.822222 0s11.377778 28.444444 0 39.822223L722.488889 369.777778l65.422222 65.422222c11.377778 11.377778 11.377778 28.444444 0 39.822222-5.688889 5.688889-11.377778 8.533333-19.911111 8.533334z" fill="#562D32" p-id="2155"></path></svg>