<?xml version="1.0" standalone="no"?><!DOCTYPE svg PUBLIC "-//W3C//DTD SVG 1.1//EN" "http://www.w3.org/Graphics/SVG/1.1/DTD/svg11.dtd"><svg t="1604740006543" class="icon" viewBox="0 0 1024 1024" version="1.1" xmlns="http://www.w3.org/2000/svg" p-id="36039" xmlns:xlink="http://www.w3.org/1999/xlink" width="9" height="9"><defs><style type="text/css"></style></defs><path d="M689.082576 336.410034a250.706441 250.706441 0 0 0-178.453695-73.936271c-67.341017 0-130.724881 26.207458-178.453695 73.936271a250.79322 250.79322 0 0 0-73.936271 178.453695c0 67.341017 26.207458 130.724881 73.936271 178.453695a250.706441 250.706441 0 0 0 178.453695 73.936271c67.358373 0 130.742237-26.207458 178.453695-73.936271a250.706441 250.706441 0 0 0 73.936271-178.453695c0-67.479864-26.207458-130.863729-73.936271-178.453695z" fill="#FFC43F" p-id="36040"></path><path d="M742.4 281.6A323.688136 323.688136 0 0 0 512 186.177085a323.688136 323.688136 0 0 0-230.4 95.422915A323.688136 323.688136 0 0 0 186.177085 512a323.688136 323.688136 0 0 0 95.422915 230.4A323.688136 323.688136 0 0 0 512 837.822915a323.688136 323.688136 0 0 0 230.4-95.422915A323.688136 323.688136 0 0 0 837.822915 512a323.688136 323.688136 0 0 0-95.422915-230.4zM712.634576 712.634576a277.59078 277.59078 0 0 1-197.475796 81.798509c-74.561085 0-144.748475-29.105898-197.458441-81.798509a277.59078 277.59078 0 0 1-81.815864-197.475796c0-74.561085 29.105898-144.748475 81.815864-197.458441a277.59078 277.59078 0 0 1 197.458441-81.815864c74.561085 0 144.748475 29.105898 197.475796 81.815864a277.59078 277.59078 0 0 1 81.798509 197.458441c0 74.561085-28.984407 144.748475-81.798509 197.475796z" fill="#5D101D" p-id="36041"></path><path d="M594.336542 512.034712a18.570847 18.570847 0 0 0 18.51878-18.51878 18.570847 18.570847 0 0 0-18.51878-18.501424h-46.288271l60.450712-72.200677a18.501424 18.501424 0 0 0-2.308339-26.120678 18.501424 18.501424 0 0 0-26.103322 2.308339l-63.054102 75.272677-65.622779-75.550372a18.570847 18.570847 0 0 0-26.120678-1.839729 18.570847 18.570847 0 0 0-1.839729 26.103322l62.481356 71.922983h-48.509831a18.570847 18.570847 0 0 0-18.518779 18.51878c0 10.187932 8.330847 18.51878 18.518779 18.518779h59.895322v36.273899h-59.877966a18.570847 18.570847 0 0 0-18.536135 18.518779c0 10.187932 8.330847 18.51878 18.518779 18.51878h59.895322v47.867661c0 10.170576 8.330847 18.501424 18.51878 18.501424a18.570847 18.570847 0 0 0 18.51878-18.501424V585.242034h59.877966a18.570847 18.570847 0 0 0 18.518779-18.51878 18.570847 18.570847 0 0 0-18.501423-18.501423h-59.895322v-36.291255h59.982101v0.08678zM994.425492 468.124203c-12.183864 0-22.736271-8.816814-24.610712-21.243661-14.544271-99.171797-59.895322-189.144949-130.985221-260.217491-87.612746-87.612746-204.175186-135.966373-328.200678-135.966373-124.025492 0-240.587932 48.353627-328.200678 135.966373a24.905763 24.905763 0 0 1-35.163118 0 24.905763 24.905763 0 0 1 0-35.180475 510.333831 510.333831 0 0 1 170.001356-112.830915A511.774373 511.774373 0 0 1 510.628881 0.989288c66.733559 0 131.731525 12.669831 193.379797 37.662373a512.225627 512.225627 0 0 1 170.001356 112.830915c78.657085 78.674441 128.867797 178.332203 145.026169 288.195255a24.818983 24.818983 0 0 1-21.000678 28.203389c-1.249627 0.121492-2.377763 0.242983-3.610033 0.242983z" fill="#5D101D" p-id="36042"></path><path d="M170.122847 213.755661l-1.110779-1.49261a12.37478 12.37478 0 0 1-1.249627-1.388475l-9.68461-11.281356-1.128136-1.509966c-0.485966-0.485966-0.867797-0.867797-1.232271-1.353762l-2.481899-2.863729-1.128135-1.49261a12.37478 12.37478 0 0 1-1.249627-1.371119l-9.68461-11.298712-1.11078-1.49261a12.37478 12.37478 0 0 1-1.249627-1.371119l-2.481899-2.863729-1.128135-1.49261c-0.485966-0.485966-0.867797-0.867797-1.232271-1.353762l-9.701966-11.316068-1.11078-1.49261c-0.503322-0.503322-0.867797-0.867797-1.249627-1.371119l-2.481899-2.846373c-0.381831-0.381831-0.746305-0.867797-1.110779-1.388475-0.138847 0.642169-0.381831 1.128136-0.520678 1.75295l-1.214915 3.471186c-0.260339 0.624814-0.381831 1.128136-0.64217 1.735593-0.121492 0.642169-0.364475 1.249627-0.485966 1.752949l-4.981153 14.058306c-0.242983 0.607458-0.364475 1.11078-0.607457 1.735593-0.138847 0.607458-0.381831 1.232271-0.503322 1.735593l-1.249627 3.471186c-0.242983 0.624814-0.364475 1.128136-0.607458 1.735594-0.138847 0.624814-0.381831 1.249627-0.520678 1.735593l-4.946441 14.058305c-0.260339 0.624814-0.381831 1.11078-0.624813 1.735593-0.121492 0.624814-0.381831 1.249627-0.503322 1.735593l-1.249627 3.471187c-0.242983 0.642169-0.485966 1.128136-0.607458 1.752949-0.121492 0.624814-0.381831 1.249627-0.503322 1.735593l-4.963797 14.058305c-0.260339 0.607458-0.381831 1.11078-0.624813 1.735593-0.121492 0.607458-0.381831 1.232271-0.503322 1.735594l-1.232271 3.471186c0 0.121492-0.138847 0.260339-0.138848 0.381831l10.205288-1.995933c0.607458-0.121492 1.232271-0.242983 1.857085-0.242983l1.857085-0.38183 3.610034-0.746305a9.597831 9.597831 0 0 1 1.857084-0.242983l1.874441-0.364475 14.665763-2.742237c0.624814-0.121492 1.232271-0.242983 1.857085-0.242983l1.87444-0.381831 3.592678-0.746305c0.624814-0.121492 1.249627-0.242983 1.874441-0.242983l1.857085-0.364474 14.665762-2.742238c0.624814-0.121492 1.232271-0.242983 1.857085-0.242983l1.874441-0.38183 3.592678-0.746305c0.624814-0.121492 1.249627-0.242983 1.87444-0.242983l1.857085-0.381831 10.187932-1.857085-0.364474-0.364474-3.471187-2.360407z" fill="#FFC43F" p-id="36043"></path><path d="M238.730847 217.105356l-8.955661-10.448271c-0.364475-0.485966-0.867797-0.989288-1.232271-1.353763l-1.128135-1.49261-2.481899-2.863729c-0.381831-0.503322-0.867797-0.867797-1.249627-1.371119l-1.110779-1.49261-9.701967-11.298712c-0.364475-0.503322-0.867797-0.867797-1.232271-1.371118l-1.128135-1.49261-2.481899-2.863729c-0.364475-0.485966-0.867797-0.867797-1.232271-1.353763l-1.128135-1.49261-9.684611-11.316068a13.607051 13.607051 0 0 0-1.249627-1.371119l-1.110779-1.49261-2.499255-2.846373c-0.364475-0.503322-0.867797-0.867797-1.232271-1.371118l-1.128135-1.49261-9.684611-11.298712c-0.381831-0.520678-0.867797-0.867797-1.249627-1.388475l-1.110779-1.475254-2.481899-2.863729c-0.381831-0.485966-0.867797-0.867797-1.249627-1.371119l-1.110779-1.49261-9.701966-11.298712c-0.364475-0.503322-0.867797-0.989288-1.249628-1.371118l-1.110779-1.49261-2.481899-2.846373c-0.381831-0.520678-0.867797-0.867797-1.249627-1.388475l-1.110779-1.475254-9.701966-11.316068c-0.364475-0.485966-0.867797-0.867797-1.232272-1.371119l-1.128135-1.475254-2.481899-2.863729c-0.364475-0.503322-0.867797-0.867797-1.249627-1.371118l-1.110779-1.49261-9.701966-11.177221a25.079322 25.079322 0 0 0-23.482577-8.209356 25.009898 25.009898 0 0 0-18.883254 16.158373l-4.981152 14.058305c-0.242983 0.607458-0.364475 1.214915-0.485967 1.735593-0.260339 0.607458-0.503322 1.11078-0.624813 1.735594l-1.249627 3.471186c-0.242983 0.624814-0.364475 1.249627-0.485966 1.735593-0.260339 0.624814-0.503322 1.128136-0.624814 1.735594l-4.963797 14.058305c-0.260339 0.607458-0.381831 1.232271-0.520677 1.735593-0.225627 0.624814-0.485966 1.11078-0.607458 1.735593l-1.232271 3.471187c-0.260339 0.624814-0.381831 1.249627-0.520678 1.735593-0.225627 0.642169-0.485966 1.128136-0.607458 1.752949l-4.963797 14.058305c-0.260339 0.607458-0.381831 1.214915-0.503322 1.735593-0.242983 0.607458-0.503322 1.11078-0.624813 1.735593l-1.232271 3.471187c-0.260339 0.624814-0.381831 1.249627-0.503322 1.735593-0.242983 0.624814-0.503322 1.128136-0.624814 1.735593l-4.963796 14.058305c-0.260339 0.624814-0.381831 1.232271-0.503323 1.735594-0.242983 0.624814-0.503322 1.11078-0.624813 1.735593l-1.232271 3.471186c-0.260339 0.642169-0.381831 1.249627-0.503322 1.752949-0.242983 0.624814-0.503322 1.11078-0.624814 1.735594l-4.963796 14.058305c-0.242983 0.607458-0.381831 1.232271-0.503323 1.735593-0.242983 0.607458-0.485966 1.11078-0.624813 1.735593l-1.232271 3.471187c-0.242983 0.624814-0.381831 1.249627-0.503322 1.735593-0.242983 0.624814-0.485966 1.128136-0.624814 1.735593l-4.963796 14.058305c-0.242983 0.624814-0.381831 1.249627-0.503322 1.735593-0.242983 0.624814-0.485966 1.128136-0.607458 1.735594l-1.249627 3.471186c-0.242983 0.642169-0.381831 1.249627-0.503322 1.752949-0.242983 0.624814-0.485966 1.128136-0.624814 1.735593l-4.460474 12.93017a25.096678 25.096678 0 0 0 4.599322 24.471864c4.720814 5.605966 11.680542 8.712678 18.883254 8.712678 1.49261 0 3.106712-0.121492 4.599322-0.38183l1.249627-0.242983 1.857085-0.364475c0.624814-0.138847 1.249627-0.138847 1.857085-0.260339l3.610033-0.746305 1.857085-0.364474c0.624814-0.121492 1.249627-0.121492 1.874441-0.260339l14.665763-2.724882 1.857084-0.38183c0.624814-0.121492 1.249627-0.121492 1.857085-0.242983l3.610034-0.746305 1.874441-0.364475c0.607458-0.121492 1.232271-0.121492 1.857084-0.260339l14.665763-2.724881 1.857085-0.381831c0.624814-0.121492 1.249627-0.121492 1.87444-0.242983l3.592678-0.746305 1.874441-0.364475c0.624814-0.138847 1.232271-0.138847 1.857085-0.260339l12.808678-1.735593 1.857085-0.364474c0.624814-0.138847 1.249627-0.138847 1.857084-0.260339l3.610034-0.746305 1.857085-0.364475c0.624814-0.121492 1.249627-0.121492 1.874441-0.260339l14.665762-2.724881 1.857085-0.381831c0.624814-0.121492 1.249627-0.121492 1.874441-0.242983l3.592678-0.746305 1.87444-0.364475c0.607458-0.121492 1.232271-0.121492 1.857085-0.260339l14.665763-2.724881 1.857085-0.38183c0.624814-0.121492 1.249627-0.121492 1.87444-0.242983l3.592678-0.746306 1.874441-0.364474c0.624814-0.138847 1.232271-0.138847 1.857085-0.260339l14.665762-2.724881 1.857085-0.381831c0.624814-0.121492 1.249627-0.121492 1.874441-0.242983l3.610034-0.746305 1.857084-0.364475c0.624814-0.138847 1.249627-0.138847 1.857085-0.260339l1.128136-0.242983a25.009898 25.009898 0 0 0 18.883254-16.141017c2.98522-8.330847 0.746305-18.275797-4.963797-24.992542z m-75.932203 1.735593l-1.874441 0.381831c-0.607458 0.121492-1.232271 0.121492-1.857084 0.242983l-3.610034 0.746305-1.857085 0.364474c-0.624814 0.138847-1.249627 0.138847-1.857085 0.260339l-14.665762 2.724882-1.874441 0.38183c-0.624814 0.121492-1.232271 0.121492-1.857085 0.242983l-3.610034 0.746305-1.857085 0.364475c-0.624814 0.138847-1.249627 0.138847-1.87444 0.260339l-14.648407 2.724881-1.874441 0.381831c-0.624814 0.121492-1.232271 0.121492-1.857084 0.242983l-3.610034 0.746305-1.857085 0.38183c-0.624814 0.121492-1.249627 0.121492-1.874441 0.242983l-10.187932 1.978577c0-0.121492 0.121492-0.242983 0.121492-0.364475l1.249627-3.471186c0.242983-0.624814 0.364475-1.249627 0.503322-1.735593 0.242983-0.642169 0.485966-1.128136 0.607457-1.75295l4.981153-14.058305c0.242983-0.607458 0.364475-1.214915 0.485966-1.735593 0.260339-0.607458 0.503322-1.11078 0.624814-1.735593l1.249627-3.471187c0.242983-0.624814 0.364475-1.249627 0.485966-1.735593 0.260339-0.624814 0.520678-1.128136 0.624813-1.735593l4.981153-14.058305c0.242983-0.624814 0.364475-1.232271 0.485966-1.735593 0.260339-0.624814 0.503322-1.11078 0.624814-1.735594l1.249627-3.471186c0.242983-0.624814 0.364475-1.249627 0.485966-1.735593 0.260339-0.642169 0.503322-1.128136 0.624813-1.752949l4.981153-14.058305c0.242983-0.607458 0.364475-1.214915 0.485966-1.735594 0.242983-0.607458 0.503322-1.11078 0.624814-1.735593l1.249627-3.471186a9.146576 9.146576 0 0 0 0.485966-1.735594c0.381831 0.485966 0.746305 0.867797 1.128135 1.353763l2.481899 2.863729c0.364475 0.503322 0.867797 0.867797 1.232271 1.371119l1.128135 1.49261 9.684611 11.298712c0.381831 0.503322 0.867797 1.006644 1.249627 1.371118l1.110779 1.49261 2.499255 2.863729c0.364475 0.485966 0.867797 0.867797 1.232271 1.353763l1.128135 1.49261 9.684611 11.316068c0.381831 0.485966 0.867797 0.867797 1.249627 1.371119l1.110779 1.49261 2.481899 2.846373c0.381831 0.503322 0.867797 0.867797 1.249627 1.371118l1.110779 1.49261 9.701967 11.298712c0.364475 0.520678 0.867797 1.006644 1.249627 1.388475l1.110779 1.475254 2.481899 2.863729 0.38183 0.364475-9.198644 1.388474zM509.257763 1023.132203c-66.733559 0-131.731525-12.669831-193.345085-37.662372a512.225627 512.225627 0 0 1-170.018712-112.830916C67.236881 793.964475 17.026169 694.306712 0.867797 584.443661a24.818983 24.818983 0 0 1 21.000678-28.20339 24.818983 24.818983 0 0 1 28.220745 21.000678c14.526915 99.171797 59.877966 189.144949 130.967865 260.234848 87.612746 87.59539 204.192542 135.949017 328.200678 135.949017 124.025492 0 240.605288-48.353627 328.200678-135.949017a24.905763 24.905763 0 0 1 35.180474 0 24.905763 24.905763 0 0 1 0 35.163118 510.333831 510.333831 0 0 1-170.001356 112.830916 511.774373 511.774373 0 0 1-193.379796 37.662372z" fill="#5D101D" p-id="36044"></path><path d="M901.848949 870.903322l27.821559-79.420746-82.631593 15.655051z" fill="#FFC43F" p-id="36045"></path><path d="M986.216136 742.903322a25.079322 25.079322 0 0 0-23.482577-8.209356l-167.276474 31.691932a25.009898 25.009898 0 0 0-18.883254 16.141017 25.096678 25.096678 0 0 0 4.599322 24.489221l111.095322 129.006644c4.720814 5.58861 11.680542 8.677966 18.90061 8.677966 1.475254 0 3.106712-0.104136 4.581966-0.347119a25.009898 25.009898 0 0 0 18.90061-16.175729l56.163797-160.68122a25.461153 25.461153 0 0 0-4.599322-24.593356z m-84.367187 128l-54.931525-63.765695 82.631593-15.655051-27.700068 79.420746z" fill="#5D101D" p-id="36046"></path></svg>