<?xml version="1.0" standalone="no"?><!DOCTYPE svg PUBLIC "-//W3C//DTD SVG 1.1//EN" "http://www.w3.org/Graphics/SVG/1.1/DTD/svg11.dtd"><svg t="1604739151480" class="icon" viewBox="0 0 1024 1024" version="1.1" xmlns="http://www.w3.org/2000/svg" p-id="22402" xmlns:xlink="http://www.w3.org/1999/xlink" width="9" height="9"><defs><style type="text/css"></style></defs><path d="M614.4 409.6m-358.4 0a358.4 358.4 0 1 0 716.8 0 358.4 358.4 0 1 0-716.8 0Z" fill="#B75651" opacity=".15" p-id="22403"></path><path d="M873.813333 431.786667v76.8h-512l226.986667-192.853334v116.053334h285.013333zM324.266667 675.84v-76.8h512L607.573333 791.893333v-116.053333H324.266667z m0 0" fill="#E74C3C" p-id="22404"></path><path d="M834.56 215.04C752.64 119.466667 633.173333 59.733333 498.346667 59.733333c-245.76 0-443.733333 203.093333-443.733334 452.266667s199.68 452.266667 443.733334 452.266667h8.533333c20.48 0 37.546667-17.066667 37.546667-39.253334s-17.066667-39.253333-37.546667-39.253333h-8.533333C291.84 887.466667 124.586667 718.506667 124.586667 512c0-206.506667 167.253333-375.466667 373.76-375.466667 114.346667 0 216.746667 51.2 285.013333 133.12 6.826667 6.826667 17.066667 11.946667 27.306667 11.946667 20.48 0 35.84-17.066667 35.84-37.546667 0-11.946667-5.12-22.186667-11.946667-29.013333z" fill="#FFFFFF" p-id="22405"></path></svg>