<?xml version="1.0" standalone="no"?><!DOCTYPE svg PUBLIC "-//W3C//DTD SVG 1.1//EN" "http://www.w3.org/Graphics/SVG/1.1/DTD/svg11.dtd"><svg t="1604739027742" class="icon" viewBox="0 0 1024 1024" version="1.1" xmlns="http://www.w3.org/2000/svg" p-id="21816" xmlns:xlink="http://www.w3.org/1999/xlink" width="9" height="9"><defs><style type="text/css"></style></defs><path d="M761.2 279.6l-68-68v-79.3c0-18.8 15.2-34 34-34s34 15.2 34 34v147.3z" fill="#3E6493" p-id="21817"></path><path d="M528.4 70.3l400.2 420.2c13.7 14.4 3.5 38.3-16.4 38.3H111.8c-19.9 0-30.1-23.9-16.4-38.3L495.6 70.3c8.9-9.4 23.9-9.4 32.8 0z" fill="#DD4238" p-id="21818"></path><path d="M217.5 506.1v430.4c0 12.5 10.1 22.7 22.7 22.7h181.2V710c0-12.5 10.1-22.7 22.7-22.7H580c12.5 0 22.7 10.1 22.7 22.7v249.2h181.2c12.5 0 22.7-10.1 22.7-22.7V506.1H217.5z" fill="#DD4238" p-id="21819"></path></svg>